/* XPM */
static char *_442021556a242c1b9743e8c7f6620a21HpK9W4SeyKGvEsG[] = {
/* columns rows colors chars-per-pixel */
"64 64 235 2 ",
"   c #010101",
".  c #07070A",
"X  c #07080B",
"o  c #08090D",
"O  c #15160F",
"+  c #0C0D14",
"@  c #0F0F19",
"#  c #120F18",
"$  c #0F1117",
"%  c #0F1119",
"&  c #13131C",
"*  c #1A141D",
"=  c #18191C",
"-  c #221C1E",
";  c #2C2C14",
":  c #151621",
">  c #1A1622",
",  c #161923",
"<  c #1A1A25",
"1  c #171C2B",
"2  c #1B1D2A",
"3  c #161E33",
"4  c #231B25",
"5  c #2A1D24",
"6  c #231E2A",
"7  c #2A1B29",
"8  c #331F2A",
"9  c #2C1E31",
"0  c #17202D",
"q  c #1D212D",
"w  c #1E2332",
"e  c #172837",
"r  c #1C2D3B",
"t  c #13333E",
"y  c #262225",
"u  c #22222D",
"i  c #2B232E",
"p  c #35222A",
"a  c #333420",
"s  c #222533",
"d  c #2C2533",
"f  c #242936",
"g  c #2B2935",
"h  c #262B3A",
"j  c #2A2D3B",
"k  c #322734",
"l  c #32273A",
"z  c #342C3C",
"x  c #392C3B",
"c  c #24303E",
"v  c #2B303E",
"b  c #33313E",
"n  c #461F2A",
"m  c #482C37",
"M  c #473637",
"N  c #4D313A",
"B  c #553136",
"V  c #5F3136",
"C  c #53313B",
"Z  c #5B333D",
"A  c #62363A",
"S  c #69393F",
"D  c #4A4416",
"F  c #56472D",
"G  c #6A4C38",
"H  c #716B27",
"J  c #1B2F42",
"K  c #1A3849",
"L  c #163D52",
"P  c #262F41",
"I  c #2C2F41",
"U  c #392E41",
"Y  c #253341",
"T  c #2C3443",
"R  c #2D3946",
"E  c #2C3649",
"W  c #233B4B",
"Q  c #2E3A4B",
"!  c #333444",
"~  c #3C3444",
"^  c #33364A",
"/  c #383748",
"(  c #323B4C",
")  c #3B3C4C",
"_  c #2F3D51",
"`  c #333D51",
"'  c #3B3D52",
"]  c #333C58",
"[  c #463947",
"{  c #433C4D",
"}  c #533243",
"|  c #423E51",
" . c #493E51",
".. c #6F3E44",
"X. c #144654",
"o. c #1A4757",
"O. c #154C5B",
"+. c #19515D",
"@. c #3A404F",
"#. c #264757",
"$. c #344254",
"%. c #3B4254",
"&. c #34455A",
"*. c #3B455B",
"=. c #354A5C",
"-. c #3C495D",
";. c #1C4962",
":. c #155463",
">. c #175765",
",. c #12566B",
"<. c #2B4560",
"1. c #354C61",
"2. c #394B62",
"3. c #265666",
"4. c #385265",
"5. c #265D76",
"6. c #0D6475",
"7. c #126976",
"8. c #266677",
"9. c #49414E",
"0. c #5D454E",
"q. c #444252",
"w. c #4B4454",
"e. c #494758",
"r. c #424A5D",
"t. c #4C4B5C",
"y. c #534455",
"u. c #544858",
"i. c #544B5A",
"p. c #5A4E5D",
"a. c #5B505E",
"s. c #614C5B",
"d. c #434D62",
"f. c #4A4D61",
"g. c #564F62",
"h. c #455065",
"j. c #4C5266",
"k. c #47556B",
"l. c #4B546A",
"z. c #5D5362",
"x. c #52556C",
"c. c #58586B",
"v. c #4D5B73",
"b. c #4D5C78",
"n. c #535C73",
"m. c #5A5D73",
"M. c #585D79",
"N. c #655464",
"B. c #695968",
"V. c #745B66",
"C. c #785B67",
"Z. c #755D69",
"A. c #605F73",
"S. c #5B6177",
"D. c #55627C",
"F. c #5C637B",
"G. c #5C687E",
"H. c #756168",
"J. c #65667A",
"K. c #6B657A",
"L. c #74687A",
"P. c #993436",
"I. c #A5373D",
"U. c #A9731B",
"Y. c #B14937",
"T. c #AA563D",
"R. c #8E7533",
"E. c #CD4C38",
"W. c #E9462F",
"Q. c #F54B26",
"!. c #FB4D2D",
"~. c #FB512D",
"^. c #F95A2D",
"/. c #E5573B",
"(. c #EB553C",
"). c #EC5D3B",
"_. c #F55834",
"`. c #F9612F",
"'. c #F96633",
"]. c #8C5A53",
"[. c #E45941",
"{. c #DC6041",
"}. c #E86043",
"|. c #B38E35",
" X c #B0A02A",
".X c #D98F2D",
"XX c #DB963A",
"oX c #D3B333",
"OX c #FBA93F",
"+X c #E4B930",
"@X c #D1C428",
"#X c #F6DD37",
"$X c #E98948",
"%X c #FBA641",
"&X c #FBAC42",
"*X c #FAB345",
"=X c #187686",
"-X c #16778E",
";X c #2C6882",
":X c #5D6684",
">X c #656882",
",X c #767387",
"<X c #7A768D",
"1X c #8F7789",
"2X c #85798A",
"3X c #877A8B",
"4X c #13838B",
"5X c #0A8D96",
"6X c #148896",
"7X c #09949A",
"8X c #07989D",
"9X c #228597",
"0X c #089DA5",
"qX c #0C9CA4",
"wX c #1696AB",
"eX c #129EA9",
"rX c #05A4AA",
"tX c #09A5A8",
"yX c #0AA4AB",
"uX c #11A2AB",
"iX c #0DABB3",
"pX c #0AAAB7",
"aX c #14A9B5",
"sX c #0DB3BE",
"dX c #0BB9C6",
"fX c #18B8C4",
"gX c #0BC1C8",
"hX c #0ACCDB",
"jX c #08D4D8",
"kX c #03DDE5",
"lX c #04E6EB",
"zX c #07F4EA",
"xX c #8E808C",
"cX c #8C8A95",
"vX c #959AA4",
/* pixels */
"                                                                                                                                ",
"X @X< & h s w s s s s s s s s s s ( < 2 < & : < & v f f f f f f f s s f s s ( 2 2 : & : < & u q q w w s s s w s s q w ( < 2 H   ",
"o 2 & E < K 5X7X8X7X5X5X7X8X7X8Xt q E : < 2 2 & ` f R.s s f s s s f s s s |.s ( < 2 2 2 & f , J 5X5X0X7X5X7X5X5X5X5XL 2 E , 2   ",
"; & Y q 2 w o.K K h 2 q Y ;.J w <.2 2 E , H & Y 2 s s s s f E f f T f s s s f 2 ` < R.& f < , 2 u r O.w W h 2 K K O.qX2 1 E :   ",
". h 2 q yXL 2 2 2 h v R Y q 2 2 :.K 2 w T 2 Q f f 2 Y s f f Q T ( ( s f f s q s s E : T s w 0 O.2 q 2 q Y T 2 2 2 2 e qX2 2 T   ",
"X w e X.,.< < : : 2 2 2 2 : % 2 2 6.o.e w 2 T p f f h s & : f f f f , 2 s q f f oXf : < w r 6.2 2 : : 2 2 f : & 2 , 2 r >.iXs   ",
"X s rXK 2 2 , T T h h h h T R & q q L :.s 2 Q h f h s : $.` P Q ( ! $.$.< f h f f f : > e o.q 2 : R R v h v T T R 2 : < L 8Xs   ",
". s yX< 2 & T Y < @ & & @ : q Q & w q :.h q ( j ( h : $.j u & y < # i ( %.: j h h h : < s s w & Q < & # q , $ < T R 1 2 3 0Xs   ",
". w qX2 w : T < Y q s u q f 2 R , f f +.h q ` j j s 2 -.f ` s ! T v *.s *.2 j j j f < < f f s , Q & s 2 q q s v < R % W 2 rXs   ",
". s yXq T 2 T & 2 q q 2 q < & & u $.$.+.j s %.v %.-.j : , j V 2 , [ f : r.b =.$.v j < < h &.&.f & w s f s q q w & T s Y 2 rXs   ",
". s qXv Y q T & h , aX8.s q < s j ( v #.v s %.v ! %.! ! 4 / > P.E.> %.y r./ d.%.! T 2 2 T v j j 2 & q w K 6Xq h & R q w Y 0Xs   ",
". s qXh T 2 T & h < -X#.f u = f j ` j #.! f d.! d.%.) / = { > P.$X< t.= l.{ l.%.! ! 2 2 T 1.j j q = s s r =Xs f + Q q s Y 0Xs   ",
". s yXs Y 2 Q & q s < 2 f q & & j =.=.#.! g d.) h.l.{ : , g S u 2 [ q.> l.[ v.l.! ! u 6 T =.=.g # f f v , < f s & R s T 2 qXs   ",
". s yX2 w : T < j 2 s h s E s &.2 T ! 3./ j f.) ) ' i S.z r.j q.f.j l.~ n.i ) ) ! ) u 6 I T v < =.& h s s s q v 2 R & W 2 qXs   ",
". s 0X< 2 & T Q < $ : = & : v =.& ;XT 5.) j j.@.q.q.4 n.q.g > i = 4 ~ l.S., q.n.! { 6 u E ^ j > 1.s & + h # % < R R 2 W < eXs   ",
". s yX2 < 2 , ( Q Q ( ( _ &.1.< E T 5.8.%.j n.q.q.q.w.6 F.S.n.S.S.n.F.F.4 w.w.w.q.q.6 z ` 3.T T < =.=.` ( Q ( Q Q 2 2 , w qXs   ",
". s e 9X,.2 2 : < s f g g 2 & h E wX4.#.%.z n.Z t.q.w.w.> i  .u.u.9.d / w.w.t.w.+Xq.s b &.( aX^ P 2 6 d g T , < 2 w 2 e 6XrXs   ",
". Y q 2 -X>.q 2 s Q $.$.=.j T T gX;X' ) b.) m.q.q.e.u.u.u.u.F.F.J.J.u.u.u.u.e.w.w.D.b n.) %.` =.( f T T $.$.f 2 w q r 7X2 2 T   ",
"; : h 2 2 X.o.K w Q f j &.=Xj &.` %.r.b.6 Y.* j.t.u.u.u.p.a.S.N.z.S.p.p.p.u.u.u.n.l Y.6 d.' f Q ' 9X=X( 1.( h X.#.;.yX2 2 Q u   ",
"o < & h q t 0XeXeXeXeXaXaXsXdXgX4.u v.6 z l x > n.u.C p.p.a.z.p.p.z.p.p.N.} u.:Xd z x x 2 %.s 1.dXsXsXyXuXyXiXuXqX0Xr 2 Q : ,   ",
"+ , 2 & f f h f h j j v ! ! ( ) ' n.d z x 6 l U 7 g.K.K.K.K.K.K.K.L.~  .9.~ :X~ ~ k d l l * q.' ' / ^ ! T v h h f s s ( 2 2 :   ",
"% & < < q u q s s s f j j v ! ! ! / E.x 9 c.7 U m y.y.u.y.y.y.y.y.y.u.y.y.p.u.(. .x c.* x x ! ! ^ ! ! v j f f s u q q u @X2 <   ",
"X , < & j f f h j j T ! ! / ) F.S.D.z { [ 9  .w.d J.,XL.L.L.B.N.N.B.B.B.2X<XM.k w.w.5 { { < c.S.q.q.) ) / ! T v j j j $.< 2 :   ",
"o 2 & Q f G f h v ! ! ^ / ) q.q.R.u.x.6  .q. .4 m.s.G V.2X2X2X2X2XV.V.V.V.G V.>Xk  .q. .> w.u.G w.q.q.) / ! ! v v h F f Q , 2   ",
"O & E s f T f j T *.! ! l.| q.t.w.c.p.:X9 Z 9 :XB.s.V.V.V.V.V.V.V.V.V.V.V.V.V.2Xn.l ..6 K.u.u.u.w.w.q.e.) r.! T j j j f s ` :   ",
"o h f f s f j v ! -.h.l.l.q.w.u.u.p.s.2Xx.i S.V.V.V.V.V.V.C.V.C.C.C.V.V.V.C.C.V.C.>Xs m.cXs.s.>Xu.w.w.t.x.l./ ! v j h s f f v   ",
"o s F v f f f , 2 ~ ) ) { i i & * p 5 5 C.2Xi V.V.V.U.U.U.U.U.U.U.U.U.U.V.C.V.V.].7 L.V.8 p p 4 * d k  .q.f.6 4 j h q f f #Xs   ",
". f f f h f = d.h.d.m.m.c.J.L.(.).).)././.{.C 5 5 5 U.U.U.U.U.U.U.U.U.U.5 5 5 5 4 N }./.}.).).).).,XJ.J.S.l.n.l.h.j h f q s s   ",
". f s f s : -.%.g * > b t.H.> m C N N C C C C C U.U.XXXXXXXX.X.X.X.XXXXXU.U.C C C C N C C N N N m : ,XD.{ < , g d.d.f E f s s   ",
". f f f f < -.d v.k.kX7.k * E.} C Z Z Z Z Z Z Z U.U.XXXXXXXX.X.X.X.XXXXXU.U.T.Z Z Z Z Z Z C Z C C /.< 8 sXlXb.n.d d.& f f s s   ",
". f f Y ( z -.& h.lXgX> W.^.!.~.~.~.!.!.~.~.U.U..X.X.X.X.X.X.X.X.X.X.X.X.X.XU.U.!.!.!.!.Q.~.!.~.~.!._.W.7 zXjXv.: h.! ` h f s   ",
". f f T $.j *.4 b.lX2 Y._.%XOXOX%XOX%XOXOXOXU.U..X.X.X.X.X.X.X.X.X.X.X.X.X.XU.U.%X%X%X%X%X%X&X&XOX%X%X'.0.4 hXD.= h.! -.( f f   ",
". f f T ` j -.y b.zX< I.`.&X&X&X*X&X*XOXOX&XU.U..X.X.X.XXXXX.X.XXXXX.X.X.X.XU.U.*X*X&X&X*X&X*X*X*X*X*X'.s.i hXD.y d.v ` ( f s   ",
". s f Y ( z *.* v.kXiX7 W._.!.!.Q.~.!.!.!.!.U.U..X.X.X.XXXXX.X.XXXXX.X.X.X.XU.U.!.!.^.!.!.~.!.!.!.!.'.W.5 zXhXv.& h.! ` j f s   ",
"o h f f f < r.u j.v.kXqXi & /.} C Z Z Z Z Z U.U..X.XXXXX.X.X.X.X.X.XXXXX.X.XU.U.Z Z Z Z Z Z Z C Z /.* x dXkXb.j.g d.& j h f f   ",
"o h f T v & -.! g > < b c.K.< Z Z Z Z A A A U.U..X.XXXXX.X.X.X.X.X.XXXXX.X.XU.U.A A Z A A Z A A C < ,XJ.e.# & l r.d.f j f f s   ",
"X h s T h f & d.k.r.j.x.t.K.L.(.(.(.(.(./.}.C 4 U.U..X.X.X.XXXXXXXXX.X.XU.U.7 7 7 m (.(.(.(.(./.[.L.K.c.m.n.l.l.h.j j ( f f s   ",
"X f B s f s f 2 6 ~ / { 9.i d * * i - * C.xX> V.U.U..X.X.X.XXXXXXXXX.X.XU.U.V.C.V.7 L.].4 5 i 4 * x i 9.q.f.u 6 v j h j f #Xs   ",
". Y s s q f T v T d.d.l.n.e.q.w.p.p.N.2Xm./ m.V.V.V.U.U.U.U.U.U.U.U.U.U.V.V.V.V.H.M.z M.2Xz.p.z.w.9.{ t.x.l./ ! T v j f f f `   ",
"O , h s f f h v v *.^ ) k.{ q.w.u.,Xz.M.z Y.i m.V.V.U.U.U.U.U.U.U.U.U.U.V.1XV.V.F.[ I.d m.p.A.u.g.q.{ q./ d.! ! v j j f 2 ( ,   ",
"+ < & v f R.f j v ! ! ! ) ) @.{ |.w.b.6  . . .> m.B.R.V.V.V.2X2X2XV.V.V.Z.|.Z.:Xb  .q.{ * x.u.|.q.q.{ ) ^ / ! T v h R.f Q , <   ",
"+ < < & h h h h j v T ^ / ) %.%.' M./ { { 7 { q.x A.B.B.B.B.B.N.B.N.N.B.B.B.F.{ q.{ i ~ ~ 7 e.q.q.q.%./ ! ! I j h j f ` 2 2 ,   ",
"& & 2 < u u u u s f j j I ! ! ! / ' E.x 9 x.7 U m p.p.u.u.y.u.u.y.y.u.u.u.u.u.(.q.x c.4 x k | ) / / ! j j j f f s s s w @X2 <   ",
"+ > < & s f s f f f j j T T ^ ' %.b.6 x x 4 l U 4 g.u.w.w.F.,X<X<X~ [ ~ ~ { >Xg | w.7 k x * %.I ( ! ! T Y I j h f f s Q < 2 ,   ",
"+ 2 & Q w e yXyXiXiXpXpXiXdXdXhX<.) b.6 z l l 4 l.u.m p.p.z.z.z.N.a.p.a.a.N g.:Xz  .) d < d.s <.dXdXdXpXpXiXiXiXyXqX3 w E : <   ",
"O & Y 2 q J ;.w w _ j $.1.-X( ( ^ &.^ k.< V > f.n.u.u.u.u.u.F.z.z.F.p.p.u.u.{ >X:Xd ..* ' ' ' ` _ ^ 6X( 4.$.h w w ;.pX2 2 Q <   ",
"o j w w 6.O.q w s Q ( $.=.! v T dX1.^ ) d.~ j.w.~ w.w.u.u.u.G.m.F.F.u.u.u.q.u.w.w.l.g j.) / ] 9X^ < ! T $.&.s s w 2 K 6X2 2 c   ",
"o s e e 6.& 2 , < s g j j 2 & ^ ` uX( <.' j G.C q.~ b w.> i w.w.t.w.6 / w.w.w.w.+Xf.s s *.&.=X` T 2 6 j j T & < s q 2 w Y rXs   ",
"X s yXq : 2 : ( Q E ( T R 1.4., P ( 1.=X) ! D.q.{ q.q.i F.F.r.c.m.f.F.>X6 q.q.q.q.e.s j _ &.*.I 2 2.=.` ( ( $.( ( w q 2 w rXs   ",
"X f yX: q & ( T 2 & , = & < h 4.> E h =X%.z n.) ) q.7 M.| z & i > 2 [ n.S.4 q.q.{ ' s ^ E I ^ > 2.f : & v , # 2 Q Q 2 2 : yXs   ",
". s 0X2 r : Q 2 E s h h s T s =.2 ! ! 5.( j k.) ) ) i D.b l.~ e.f.) l.~ n.7 ' ) ) ) s ( ( T ! 2 1.: j u h h s T 2 Q @ W 2 yXs   ",
". s yXw T 2 Q & q s q 2 h u & : g =.1.3.! j k./ h.v.{ > 2 / Z d i N ! < l.q.v.d.) ) s u ! 4.=.j : f h j q q s s & R s R q rXs   ",
". s 8XY T s T & T 2 fX5.q s > f g &.T 3.T f k.! ) %.) ) 4 q.* I.T., l.- l./ l.q./ / s 6 T T T j < = f f o.4Xh f & R q f Y rXs   ",
"X s 8XY T u E & Y < eX;.u u = s j ` T #.v f 2.! / -./ ! = ) < P.T.> r.- h./ l.%.! ! 2 2 T T j j q , f s J 6Xq h & R q h Y rXs   ",
". s yXs T 2 Q & q s , 2 s 2 & & f Q _ #.j s &.v *.2.z > , j [ > , M ^ , -.! -.*.T T 2 2 j $.$.g & s u h < < w w & T s Y 2 yXs   ",
". s yX2 w : Q < h q f f 2 f 2 Q , f f +.j q ( j v s 2 -.f ' h T ^ T %.s -.2 v v j j < 2 h s s < Q & w s s h s Y 2 R @ K w yXs   ",
". s yXq w % T R < & & % % : f Q & ;.q >.h q ( h j j & %.u 2 & u < & s ( $.& f j f j < < q u s & Q 2 & & q # % < T T , L 2 yXs   ",
"X s iXL 2 2 : T Q T Y Y h E Q : 2 w O.>.f q $.f s h f : $.$.( $.` ( $.%.& f s f f j < < 2 ,.w q : Q Q T v h T T T 2 : 2 L yXs   ",
"X s r 6X>.2 2 : : 2 2 q 2 : & , 2 O.4Xe f q f n E f s f & < h f h j > 2 f u s s oXj , 2 w Y 6.2 , : : 2 s h : : 2 w 2 w yXuXs   ",
"o T 2 q 6X:.2 2 2 c T T Y 2 q 2 o.:.q q ( 2 Q f f s s f f f Q E E Q f s s f f s s ( , ( s w r +.2 2 q s T Q 2 2 2 2 J 8XcX2 Q   ",
"D : h 2 2 w L K 2 f 2 #.c :.dXq c , q E < oX: Y s s f f f f T f f Q f w q s s s Q <  X: f 2 q 1 w iXX.f f f 2 J 2 o.rXcXcXvX:   ",
"o 2 : Y 2 5X+.>.+.O.O.+.:.4X:.:.=X: Q , 2 2 2 & T s oXf s j T T T s s s f oXs ` < 2 2 2 & h < 5X7.+.=X+.+.+.:.:.:.>.5X2 vX& 2   ",
"o F 2 : s w q w s w w s w q s s w E < 2 < 2 < 2 : f f f s s s f f s s s s w ` 2 2 < : < 2 < w s s s s s s s s s s w w Q < 2 a   ",
"                                                                                                                                "
};
