/* XPM */
static char *_fa4923a61014819cf9a09ebe27911d0nlxmloat7LZMVQx1[] = {
/* columns rows colors chars-per-pixel */
"64 64 4 1 ",
"  c None",
". c #A9731B",
"X c #D98F2D",
"o c #DB963A",
/* pixels */
"                                                                ",
"                                                                ",
"                                                                ",
"                                                                ",
"                                                                ",
"                                                                ",
"                                                                ",
"                                                                ",
"                                                                ",
"                                                                ",
"                                                                ",
"                                                                ",
"                                                                ",
"                                                                ",
"                                                                ",
"                                                                ",
"                                                                ",
"                                                                ",
"                                                                ",
"                                                                ",
"                                                                ",
"                                                                ",
"                                                                ",
"                                                                ",
"                                                                ",
"                                                                ",
"                          ..........                            ",
"                          ..........                            ",
"                        ..ooooXXXXoo..                          ",
"                        ..ooooXXXXoo..                          ",
"                      ..XXXXXXXXXXXXXX..                        ",
"                      ..XXXXXXXXXXXXXX..                        ",
"                      ..XXXXooXXooXXXX..                        ",
"                      ..XXXXooXXooXXXX..                        ",
"                      ..XXooXXXXXXooXX..                        ",
"                      ..XXooXXXXXXooXX..                        ",
"                        ..XXXXooooXX..                          ",
"                        ..XXXXooooXX..                          ",
"                          ..........                            ",
"                          ..........                            ",
"                                                                ",
"                                                                ",
"                                                                ",
"                                                                ",
"                                                                ",
"                                                                ",
"                                                                ",
"                                                                ",
"                                                                ",
"                                                                ",
"                                                                ",
"                                                                ",
"                                                                ",
"                                                                ",
"                                                                ",
"                                                                ",
"                                                                ",
"                                                                ",
"                                                                ",
"                                                                ",
"                                                                ",
"                                                                ",
"                                                                ",
"                                                                "
};
