/* XPM */
static char *c7f2210dbf5e4baa83cf1248664c3439Rd1LH9FLexPLiJZH[] = {
/* columns rows colors chars-per-pixel */
"64 64 240 2 ",
"   c None",
".  c #1E1D3D",
"X  c #1D253D",
"o  c #1D283E",
"O  c #22213E",
"+  c #2B1C3F",
"@  c #301E48",
"#  c #1E2942",
"$  c #1C2E4B",
"%  c #1D2740",
"&  c #1C344C",
"*  c #183449",
"=  c #1C3551",
"-  c #1D3851",
";  c #212641",
":  c #222B44",
">  c #242D4A",
",  c #2B2C4C",
"<  c #28244C",
"1  c #322A4E",
"2  c #22334D",
"3  c #283249",
"4  c #2E2C52",
"5  c #222752",
"6  c #312C52",
"7  c #3A2A5A",
"8  c #233353",
"9  c #2B3657",
"0  c #37345A",
"q  c #343463",
"w  c #45376B",
"e  c #4F3C7B",
"r  c #4D3975",
"t  c #513A77",
"y  c #533C7B",
"u  c #523779",
"i  c #1B4658",
"p  c #25445D",
"a  c #394C5D",
"s  c #1F4D68",
"d  c #1F526B",
"f  c #274A66",
"g  c #354969",
"h  c #25536A",
"j  c #2B546B",
"k  c #2A5A6D",
"l  c #275569",
"z  c #32566D",
"x  c #334F75",
"c  c #2B5A72",
"v  c #265873",
"b  c #385779",
"n  c #2C4D71",
"m  c #1B6677",
"M  c #1F707E",
"N  c #2B637C",
"B  c #28677A",
"V  c #30647B",
"C  c #24777F",
"Z  c #56417E",
"A  c #41587C",
"S  c #553C80",
"D  c #2D5E81",
"F  c #1D7A89",
"G  c #1D7E92",
"H  c #256C82",
"J  c #2A6A86",
"K  c #356686",
"L  c #277689",
"P  c #247A91",
"I  c #287795",
"U  c #32718A",
"Y  c #574A85",
"T  c #445A84",
"R  c #515C93",
"E  c #4E4C84",
"W  c #436685",
"Q  c #4A6B93",
"!  c #54699B",
"~  c #4C739F",
"^  c #51709F",
"/  c #4C74A3",
"(  c #4B79A3",
")  c #4877A8",
"_  c #5175A5",
"`  c #5275A9",
"'  c #5171A6",
"]  c #257CEE",
"[  c #2B7CED",
"{  c #2877EA",
"}  c #257BF2",
"|  c #2A7EF3",
" . c #2676F5",
".. c #307EEB",
"X. c #1F76F6",
"o. c #7472FB",
"O. c #5D67EC",
"+. c #B91DF8",
"@. c #BD24FC",
"#. c #BC27F9",
"$. c #B332FC",
"%. c #A43DF7",
"&. c #A31CD2",
"*. c #C127DC",
"=. c #C51BFD",
"-. c #C424FC",
";. c #CA22FD",
":. c #C629F9",
">. c #8163DF",
",. c #8B55EF",
"<. c #954AF7",
"1. c #8A53F8",
"2. c #9354F4",
"3. c #9857F4",
"4. c #9049F0",
"5. c #9173F5",
"6. c #A869F3",
"7. c #118599",
"8. c #258498",
"9. c #1996A8",
"0. c #1498A9",
"q. c #268BA5",
"w. c #2794AB",
"e. c #259AB1",
"r. c #17A8B9",
"t. c #0FACB1",
"y. c #22A6B6",
"u. c #4280A7",
"i. c #16B7C6",
"p. c #1ABED0",
"a. c #0EB6C8",
"s. c #2C86EB",
"d. c #2C82F4",
"f. c #2B83F9",
"g. c #2A87F8",
"h. c #3281F2",
"j. c #328AF9",
"k. c #2D98F8",
"l. c #359CFC",
"z. c #3797F9",
"x. c #3786EB",
"c. c #2BADF5",
"v. c #2CABFC",
"b. c #27A9F9",
"n. c #33A4FD",
"m. c #33ACFD",
"M. c #36A7F8",
"N. c #2AB3FD",
"B. c #29B8FB",
"V. c #34B3FE",
"C. c #39B4FD",
"Z. c #35BBFE",
"A. c #3ABAFE",
"S. c #37B8F4",
"D. c #28ADE6",
"F. c #1BA5F2",
"G. c #4B8CE9",
"H. c #4898F4",
"J. c #529AF7",
"K. c #4C92EF",
"L. c #638CF5",
"P. c #42A8F7",
"I. c #41BBFC",
"U. c #44B7F3",
"Y. c #54B2EF",
"T. c #69B2F1",
"R. c #02D3CE",
"E. c #07CAD4",
"W. c #03D5DA",
"Q. c #11CAD1",
"!. c #03E1DE",
"~. c #02DBE3",
"^. c #02DCEA",
"/. c #07D8E4",
"(. c #2CCBFE",
"). c #2AC5FF",
"_. c #33C4FD",
"`. c #3BC4FB",
"'. c #33CCFD",
"]. c #3BCAFB",
"[. c #37C6F7",
"{. c #2ED3FE",
"}. c #35D1FE",
"|. c #3BD7FD",
" X c #03E2EC",
".X c #07E4EA",
"XX c #02EDF4",
"oX c #04EAF6",
"OX c #01F7F9",
"+X c #04F5E8",
"@X c #3CE2FF",
"#X c #43C5F4",
"$X c #43CBFC",
"%X c #46C9FA",
"&X c #54CDF9",
"*X c #44D3FB",
"=X c #45DCFC",
"-X c #4BDEFD",
";X c #4AD7F9",
":X c #52DBFB",
">X c #58D8FA",
",X c #68CBF9",
"<X c #66DBF9",
"1X c #73CCF0",
"2X c #4BE3FC",
"3X c #4BE6FD",
"4X c #54E2FB",
"5X c #55EAFD",
"6X c #5BEDFE",
"7X c #58E4FA",
"8X c #5DF0FC",
"9X c #63EDFD",
"0X c #6BEBFB",
"qX c #66E5F9",
"wX c #7AE7FB",
"eX c #63F2FE",
"rX c #6BF2FD",
"tX c #78F4FD",
"yX c #87D8F8",
"uX c #AFD2F6",
"iX c #87ECFB",
"pX c #8CF3FC",
"aX c #80F0FA",
"sX c #97F3FD",
"dX c #92E8F9",
"fX c #ABEDF9",
"gX c #ABF3FA",
"hX c #B4F3FB",
"jX c #B9E0F3",
"kX c #C8F6FA",
"lX c #DCFAFC",
"zX c #D5F5FB",
"xX c #CEE8F3",
"cX c #E4FAFC",
"vX c #ECFBFD",
"bX c #E4F7FA",
"nX c #F5FDFD",
"mX c #FDFEFE",
"MX c #F4F7FA",
"NX c #E2DDF0",
/* pixels */
"                                                                                                                                ",
"                                                                                                                                ",
"                                                                                                                                ",
"                                                                                                                                ",
"                                                                                                                                ",
"                                                                                                                                ",
"                                                                                                                                ",
"                                                                                                                                ",
"                                                        o & & & & & = ;                                                         ",
"                                                X & & & # & & & & & & ;     * X                                                 ",
"                                            o * o 6 1 Z 9 j l l l l l r y 1 : o * o                                             ",
"                                      X X & < , t y y / g 9.<.<.<.,.e.Q / u y y : # & X                                         ",
"                                  . # & ; w y W.R / ( p.q.L 3 > 2 3 r.y.W./ / Y R.Z w X * X                                     ",
"                                : & * 0 e / / / h N N XXp.8.F L L F 7.p.XXB m x ^ / R y 1 & *                                   ",
"                                = - i e / (  Xj !.q.N N c 3 8 8 2 2 > J N H 0./.d ~./ / y m & &                                 ",
"                              & & k k F u.L  X4.g L 8 =.=.H.P.l.l.N.c.-.@.2 L x O./.E./ E.c c $ &                               ",
"                            & * j 9.3.K h 8.I f $ @.m.C.1XB.d.| } _.nXc.N.N.@.> p K E.s K 3.J k $ &                             ",
"                          & - c r.4.= /.E.J > -.c.*XmXmXmXmXmXmXyXf.| `.:XmXB.n.;.3 C t. X> 3.v v = &                           ",
"                          * F k 2.8  XP OX:.m.mXmX'.].| | | d.d.| mXmXB.d.| '.mXmX5.+.oXP ^.> 3.c m &                           ",
"                        & 6 y 0.b +Xi.OX#.I.g.1X| | | } | | } | d.| | *XnXb.| } d.*X5.+.XXM ~.Q t.r , &                         ",
"                      X X y ` ) n a.XX@.Y.d...| d.h.} $X2X3X4X6X| d.| | d.%XmXnXlXd.C.o.=.OXQ.i / _ y X X                       ",
"                      & r y ) D W.N =.o.d.} fXd.kXnXzXU.U.g.#X=XmXmX].d.| d.[.vX] x.} B.NX;.U r.z _ r 4 -                       ",
"                    % ; y _  X^.J q uXg.G.{ 1XkX].d.| | | d.} T.g.f.zXkXZ.f.| #XnXxX} vX,XH.4 I  X!./ Z , ;                     ",
"                    & : E.z v 4.9 -.$XfXz.mX*Xg.h.| [.zXzXwXsXhX:Xg.g.yXqXS.d.d.*XU.T.vXg.[.:.g >.v T E.2 &                     ",
"                  ; o t ^ V ^.q 5 V.I.,XU.].d.j.bX2X=Xn.V.V.4X6X9XaX4XC.k.fXM.d.d.nXT.xX} &Xb.&.f /.x ! y o X                   ",
"                  & 1 y / B J k :.nXh.[ cXd.,X:Xg.j.m.m.Z.eXZ.Z.C.A.6X5X&Xn.mXf.f.nXnX] d.M.b.:.N J v ( t 6 *                   ",
"                  & 4 u ( I N 6 v.#X| >X:XzXS.j.n.m.qXlXmXmXmXmX6X2XB.9XmXV.v.lXT.} nXhX| | mXF.9 V N ( t , &                   ",
"                  * y _ W.oXN :.dXd.I.mXfX| d.k.m.bXaXmXeX).rX5X5XnX5X_.6X3X].6X-Xf.=X[ jX] nXS.#.N OXE._ y &                   ",
"                  $ 0 T r.9.v -.].d.nXwXs.h.d.dXqX0XsX(.'.2X2X-X(.'.nX5X).nXm.5X4Xd.|.<XJ.} mXmX#.k r.r.g 0 $ X                 ",
"                  2 j e.L N > l.d.:XmXd.d.d.lXn.#XnX`.'.8XzXtX9XhX|.0XqX).0X}.*XmXd.Z.mXJ.| mXmXL.> w.8.q.j 2 2                 ",
"                & 2 j 2.: I 9 n.| mX*X| #X[.;Xl.cX_.|.pXcX|.rXmXmXnX}.0X).5X'.N.vXj.V.mX| d.mXs.J.i L : 3.j 2 2                 ",
"                & 2 j 2.: P 8 m._.mXd.| d.pXk.vXmX_.3XmX}.gXwXmXmXmX{.0X(.6X6XZ.V.g.%XnXd.d.mXd.K.s G 2 <.0.2 &                 ",
"                & 2 f 2.: I 8 N.(.mXd.d.d.mXnXm.eXA.rXrX(.cXmXmXmXmXcX2X'.mXZ.qXC.g.cX>X| d.mXj.H.h G : <.U & &                 ",
"                & 2 l 2.: 8.8 m.mX|.d.| | mXl.M.mXC.9XrX(.hX{.mXnXpXeX{.nX*X9XvX].j.wX4Xd.&XmX .H.h F > <.j 2 &                 ",
"                & 8 j y.P J 9 b.mX].| | | :Xl.M.mXC.9X9X).lX{.9XmXeXtXnX2X'.mXC.V.bXvX| d.>Xd.%XK.9 B 8.9.j 2 &                 ",
"                X ; 0 A i.w.p :.mX]. .| j.=Xl.Y.mXA.5XvX'.=XnXrX'.(.}.(.(.aX(.mX>XS.S.d.k.jX| mX:.n a.r.b q ; o                 ",
"                  & y ` ~.XXN -.I.mX| d.f.sXk.pXvX-XA.wXnX}.(.pXkXeX-XkXmXgX%Xn.j.wXd.| ,Xf.nXmX-.N OXE.Y y &                   ",
"                  & 4 u ( H N 9 v.mXd.| | mXz.&X2XkXyXZ.pX2XrX}.|.@X0X7X$XC.l.j.dXg.| c.<XnX&XD.9 N H / y 6 &                   ",
"                  & ; y ` c U L ;.N.| d.d.lX;Xf.*XgX4X%XZ.zXwXB.C.A.C.A.C.M.%XlXU.d.k.nXhXd.nX-.J J c / y , *                   ",
"                  ; o y ! c oXg 2 B.`.d.T.zXnXS.f.c.nXZ.j.*XtXcXvX9X4X7X:XwXI.| | B.nX>Xd.T.n.5 T ~.W Y y X ;                   ",
"                    & : /./ v %.9 :.mX} d. .s.lXd.d.f.nX|.f.f.M.;X4X].mX| | d.d. .nXH.d.| kX#.p 4.a ~ R.: &                     ",
"                    o : y _ ~.XXU 7 O.[.d.h.d.nX=Xd.d.f.=X|.j.f.d.j.G.d.d.d.$XnXG.G.[ s.xX2.: U oX~./ y ; ;                     ",
"                      = w e ( j ^.V -.1.M.nX} f.mX>X| | =Xz.=XnXmX2X7X4XzXmXMX] s.G.[ ] L.-.N 9.z / e 0 &                       ",
"                      X X y ' ) f /.Q.$.cXd. .| v.|.*XN.d.| | | } c.$X| ] [ | | { | | 5.+.OX/.p / ' S X X                       ",
"                        & , y W.K ^.r..X$.MX`.d.} #XnX;X[.| | | | d.| | | | | ] | #X6.$.OXH t.K F y , *                         ",
"                          * 7.k 5.3 ~.L +X*.J.wX_.f.| U.F.mX[.].s.| | | | <X'.mXnXL.=..XF  X: ,.c 0.&                           ",
"                          & & k k 2.: E.B N : :.M.v.mXv.M.f.| %XmXmXmXmXmXmXc.b.-.9 B t.Q.3 2.j j - &                           ",
"                            & * l P 3.J p B U f < ;.B.A.nX&Xd.| | | &Xc.S.c.=.7 9 U /.h W o.k k * &                             ",
"                              & & c c t.) J ~.1.g H 5 =.;.P.v.c.c.k.z.:.+.4 q.g <.^.v / 8.j j & &                               ",
"                              o & & H e / / ^.i ^.J N c j : > 8 2 & 8 N N V U ^.v ^._ _ y F & &                                 ",
"                                o = & 4 y ^ _ W b l B XXr.B P P P I P 0.OX8.v b Q _ ! y 6 * & 7                                 ",
"                                  + o & : w Z ~.^ ~ ( E.t.H > 2 2 > r.9.Q.( ` E R.Z 0 ; * #                                     ",
"                                      @ X & > > t y u _ 0 i.,.2.2.,.e.W _ y y y 3 o = X @                                       ",
"                                            X & # 6 , y 1 l j j j j l w y 4 4 o & O                                             ",
"                                                X & & & ; = & & & & & ; & & ; ;                                                 ",
"                                                        ; & & & & & & ;                                                         ",
"                                                                                                                                ",
"                                                                                                                                ",
"                                                                                                                                ",
"                                                                                                                                ",
"                                                                                                                                ",
"                                                                                                                                ",
"                                                                                                                                ",
"                                                                                                                                "
};
