/* XPM */
static char *_ddc324101d64d93a92ceb4f6a14144dcNhOAdLXJATzJtGA[] = {
/* columns rows colors chars-per-pixel */
"64 64 4 1 ",
"  c None",
". c #C57204",
"X c #D98F2D",
"o c #EEB05F",
/* pixels */
"                                                                ",
"                                                                ",
"                                                                ",
"                                                                ",
"                                                                ",
"                                                                ",
"                                                                ",
"                                                                ",
"                                                                ",
"                                                                ",
"                                                                ",
"                                                                ",
"                                                                ",
"                                                                ",
"                                                                ",
"                                                                ",
"                                                                ",
"                                                                ",
"                      XXXXXXXXXXXXXXXXXXXXXXXX                  ",
"                      XXXXXXXXXXXXXXXXXXXXXXXX                  ",
"                      XXooooooooooooooooooooXX                  ",
"                      XXooooooooooooooooooooXX                  ",
"                      XXoo................ooXX                  ",
"                      XXoo................ooXX                  ",
"                      XXoo..oooooooooooo..ooXX                  ",
"                      XXoo..oooooooooooo..ooXX                  ",
"                      XXoo..oooooooooooo..ooXX                  ",
"                      XXoo..oooooooooooo..ooXX                  ",
"                      XXoo..oooooooooooo..ooXX                  ",
"                      XXoo..oooooooooooo..ooXX                  ",
"                      XXoo................ooXX                  ",
"                      XXoo................ooXX                  ",
"                      XXooooooooooooooooooooXX                  ",
"                      XXooooooooooooooooooooXX                  ",
"                      XXooXXXXooooooooooooooXX                  ",
"                      XXooXXXXooooooooooooooXX                  ",
"                      XXoo..XXooooooooooooooXX                  ",
"                      XXoo..XXooooooooooooooXX                  ",
"                      XXooXXXXooooooooooooooXX                  ",
"                      XXooXXXXooooooooooooooXX                  ",
"                      XXooooooooooooooooooooXX                  ",
"                      XXooooooooooooooooooooXX                  ",
"                      XXoo................ooXX                  ",
"                      XXoo................ooXX                  ",
"                      XXoo..oooooooooooo..ooXX                  ",
"                      XXoo..oooooooooooo..ooXX                  ",
"                      XXoo..oooooooooooo..ooXX                  ",
"                      XXoo..oooooooooooo..ooXX                  ",
"                      XXoo................ooXX                  ",
"                      XXoo................ooXX                  ",
"                      XXooooooooooooooooooooXX                  ",
"                      XXooooooooooooooooooooXX                  ",
"                      XXXXXXXXXXXXXXXXXXXXXXXX                  ",
"                      XXXXXXXXXXXXXXXXXXXXXXXX                  ",
"                                                                ",
"                                                                ",
"                                                                ",
"                                                                ",
"                                                                ",
"                                                                ",
"                                                                ",
"                                                                ",
"                                                                ",
"                                                                "
};
