/* XPM */
static char *d199fb5e65344339f21919dc933b2770C1gl3M0scqou7Skt[] = {
/* columns rows colors chars-per-pixel */
"64 64 249 2 ",
"   c #010101",
".  c #07070A",
"X  c #07080B",
"o  c #08090D",
"O  c #15160F",
"+  c #0D0E15",
"@  c #130F18",
"#  c #0F1119",
"$  c #13131C",
"%  c #16171C",
"&  c #2C2C14",
"*  c #151621",
"=  c #161923",
"-  c #1A1A25",
";  c #181927",
":  c #1B1D2A",
">  c #191E36",
",  c #201E28",
"<  c #2B1C3F",
"1  c #17202D",
"2  c #1D212D",
"3  c #1E2332",
"4  c #162836",
"5  c #1D253C",
"6  c #1C2A3D",
"7  c #13333E",
"8  c #242325",
"9  c #21232E",
"0  c #222533",
"q  c #292636",
"w  c #242936",
"e  c #2A2935",
"r  c #262B3A",
"t  c #2A2D3B",
"y  c #342D32",
"u  c #24303E",
"i  c #2B303E",
"p  c #4F2A2A",
"a  c #594F22",
"s  c #56472D",
"d  c #716B27",
"f  c #301E48",
"g  c #1D2B44",
"h  c #193749",
"j  c #1C344C",
"k  c #1C3551",
"l  c #193B51",
"z  c #212641",
"x  c #222B44",
"c  c #242D4A",
"v  c #2B2C4C",
"b  c #322A4E",
"n  c #253242",
"m  c #2C3444",
"M  c #2D3946",
"N  c #22334D",
"B  c #2C3649",
"V  c #233B4B",
"C  c #2E3A4B",
"Z  c #323444",
"A  c #313C4D",
"S  c #2B2A52",
"D  c #332B53",
"F  c #233353",
"G  c #2C3955",
"H  c #333D51",
"J  c #37345A",
"K  c #343463",
"L  c #45376B",
"P  c #4E3A77",
"I  c #513977",
"U  c #533C7B",
"Y  c #144654",
"T  c #194859",
"R  c #19515D",
"E  c #31404F",
"W  c #254558",
"Q  c #344254",
"!  c #37475A",
"~  c #3C4A5E",
"^  c #1D4B65",
"/  c #155463",
"(  c #175766",
")  c #12566B",
"_  c #274A65",
"`  c #364B65",
"'  c #25536A",
"]  c #2B546B",
"[  c #28576B",
"{  c #35546A",
"}  c #304E73",
"|  c #265873",
" . c #2B5A72",
".. c #385779",
"X. c #116777",
"o. c #186675",
"O. c #28677A",
"+. c #2B637C",
"@. c #2D697C",
"#. c #40495D",
"$. c #414D62",
"%. c #465266",
"&. c #56417E",
"*. c #485976",
"=. c #8C7531",
"-. c #B7992B",
";. c #D1B334",
":. c #D1C428",
">. c #F6DD37",
",. c #553C80",
"<. c #2D5E81",
"1. c #1B7A89",
"2. c #187C8E",
"3. c #286B85",
"4. c #356686",
"5. c #277689",
"6. c #32718A",
"7. c #267893",
"8. c #4E5388",
"9. c #486B91",
"0. c #54699B",
"q. c #4C74A3",
"w. c #4978A6",
"e. c #5171A6",
"r. c #5175A5",
"t. c #5275A9",
"y. c #1F76F6",
"u. c #287BED",
"i. c #307EEB",
"p. c #2676F5",
"a. c #257BF2",
"s. c #2A7EF3",
"d. c #5D67EC",
"f. c #7472FB",
"g. c #A31CD2",
"h. c #B91DF8",
"j. c #BC25FA",
"k. c #AF35FB",
"l. c #C127DC",
"z. c #C51BFD",
"x. c #C626FB",
"c. c #8E4DF0",
"v. c #954AF7",
"b. c #8A53F8",
"n. c #9656F4",
"m. c #9B67EC",
"M. c #9173F5",
"N. c #13838B",
"B. c #0A8C96",
"V. c #158795",
"C. c #08979C",
"Z. c #248498",
"A. c #099DA6",
"S. c #0C9CA4",
"D. c #1994AB",
"F. c #1798A8",
"G. c #2691A9",
"H. c #08A5A9",
"J. c #0AA4AA",
"K. c #11A3AB",
"L. c #0BA9B3",
"P. c #16A8B8",
"I. c #11B5BA",
"U. c #22A6B6",
"Y. c #4280A7",
"T. c #18B6C5",
"R. c #13B9CB",
"E. c #3086EB",
"W. c #2C82F4",
"Q. c #2B83F9",
"!. c #2A87F8",
"~. c #3287F6",
"^. c #2D98F8",
"/. c #3699FA",
"(. c #1BA5F2",
"). c #28ADE6",
"_. c #2AABF9",
"`. c #36A7F8",
"'. c #33A4FD",
"]. c #33ACFD",
"[. c #29B6FB",
"{. c #34B3FE",
"}. c #39B4FD",
"|. c #35BBFE",
" X c #39B9F9",
".X c #4D92EF",
"XX c #4898F4",
"oX c #638CF5",
"OX c #4CADF3",
"+X c #42B9F8",
"@X c #69B2F1",
"#X c #0DCBCF",
"$X c #07CAD4",
"%X c #03D5DA",
"&X c #03E1DE",
"*X c #02DBE3",
"=X c #07D8E4",
"-X c #02DCEA",
";X c #2AC5FF",
":X c #2CCBFE",
">X c #35C5FB",
",X c #3BC4FB",
"<X c #33CCFD",
"1X c #3BCAFB",
"2X c #2ED3FE",
"3X c #39D5FD",
"4X c #03E3EB",
"5X c #04F5E8",
"6X c #03ECF5",
"7X c #01F7F9",
"8X c #3CE2FF",
"9X c #45C9F9",
"0X c #54CDF9",
"qX c #44D3FB",
"wX c #48DBFB",
"eX c #56DAFA",
"rX c #68CBF9",
"tX c #6BD5F5",
"yX c #4BE3FC",
"uX c #4BE6FD",
"iX c #54E2FB",
"pX c #56E9FC",
"aX c #5BEDFE",
"sX c #5DF0FC",
"dX c #63EDFD",
"fX c #68E8FA",
"gX c #7AE7FB",
"hX c #68F2FD",
"jX c #78F4FD",
"kX c #8C8E94",
"lX c #959AA4",
"zX c #87D8F8",
"xX c #AFD2F6",
"cX c #87ECFB",
"vX c #92E8F9",
"bX c #8AF3FB",
"nX c #97F3FD",
"mX c #ABEDF9",
"MX c #AFEEF8",
"NX c #B4F3FB",
"BX c #E2DDF0",
"VX c #CEE8F3",
"CX c #C8F6FA",
"ZX c #D9F8FB",
"AX c #E4F9FB",
"SX c #ECFBFD",
"DX c #F4F7FA",
"FX c #F5FDFD",
"GX c #FDFEFE",
/* pixels */
"                                                                                                                                ",
"X :.; $ r 0 3 0 0 0 0 0 0 0 0 0 0 A ; : ; $ * ; $ i w q w w w w w 0 0 w 0 0 A : : = $ * ; $ 9 2 2 3 3 0 0 0 3 0 0 2 3 C ; : d   ",
"o : $ B ; h B.C.C.C.B.B.C.C.C.C.7 2 B * ; : : $ H w =.0 0 q 0 0 0 q 0 0 0 -.0 A ; : : : $ w = h B.B.A.C.B.C.B.B.B.B.l : B = :   ",
"& $ n 2 : 3 T j j r : 2 n ^ h 3 _ : : B = d $ n : 0 0 0 0 w B w w m w q 0 0 w : H ; =.$ w ; = : 9 6 Y 3 V r : h h R S.: ; B *   ",
". r : 2 J.l : : : r i m n 2 : : / l : 3 m : C w w : n 0 w w C m A A 0 w 0 0 2 0 0 B * m 0 3 1 R : 2 : 2 n m : : : : 7 S.: : m   ",
"X 3 4 Y ) ; ; * * : : : : * # : : X.Y 4 3 : m y w w r 0 $ * w w w w = : 0 2 w w ;.w * ; 0 6 X.: : * * : : w * $ : = : 6 ( L.0   ",
"X 0 J.h : : = m m r r r r m M $ 2 2 l / 0 : C r w r 0 * Q H n C A Z Q Q ; w r w w w * = 5 Y 2 : * M M i r i m m M : * ; l C.0   ",
". 0 J.; : $ m n ; # $ $ # * 2 C $ 3 2 / r 2 A t A r * Q t 9 $ 8 ; @ 9 A Q * t t r r * ; 0 0 3 $ C ; $ @ 2 = # ; m M ; : : A.0   ",
". 0 S.: 3 * m ; n 2 0 9 2 w : M = q q R r 2 H t t 0 : ~ 6 j j j j j k z ~ : t t t w ; ; w q 0 = C $ 0 : 2 2 0 u ; M # V : J.0   ",
". 0 J.2 m : m $ : 2 2 : 2 ; $ $ 9 Q Q R t 0 Q i 5 j j j g j j j j j j z #.i j 5 i t ; ; r Q Q w $ 3 0 w 0 2 2 3 $ m 0 n : J.0   ",
". 0 S.i n 2 m $ r = P.O.0 2 ; 0 t A i W i 0 5 j 6 D b &.J ] ' ' ' ' ' P U b x 5 j 6 : : m i t t : $ 9 3 j V.2 r $ M 2 3 n A.0   ",
". 0 S.r m : m $ r ; 1.W w 2 % q t H t 5 5 j z v I U U q.` F.v.v.v.c.G.9.q.I U U n g j 5 m ` t t 2 % 0 0 6 1.0 w + C 2 0 n S.0   ",
". 0 J.0 n : C $ 2 0 ; : w 2 $ $ t 5 g j z L U %X8.w.w.R.G.5.N c N N P.U.%Xq.q.8.%X&.L 5 j 5 ! e @ w w i = ; w 0 $ M 0 m : S.0   ",
". 0 J.: 3 * m ; t : 0 r 0 B 0 ! x j h J U q.q.q.' +.+.6XR.Z.1.5.5.1.V.R.6X@.o.} 0.q.0.U b j j ; ! $ r 0 0 0 2 i : M $ V : S.0   ",
". 0 A.; : $ m C ; # * % $ * i ~ k l T P t.w.4X] &XG.+.+. .B F F N N c 3.+.3.K.=X^ =Xq.q.U o.j j ` 0 $ + r @ # ; M M : V ; A.0   ",
". 0 J.: ; : = A C C A A H ! ` j j ]  .1.Y.5.4Xc.` 5.G z.z.XXXX/./.{._.x.j.N 5.} d.=X$Xq.$X . .j j ! ! H A C A C C : : = 3 S.0   ",
". 0 4 Z.) : : * ; 0 q e e : j j ] D.n.4.^ Z.7._ j j.].}.tX[.W.s.a.>XFX_.[._.j.c W 4.$X^ 4.n.3.] g j , e e m = ; : 3 : 5 V.J.0   ",
". n 2 : 2.( 2 : 0 C E Q ! j k  .P.c.j =X$X3.c x._.qXGXGXGXGXGXGXzXQ.s.,XeXGX[.'.x.B 5.L.4Xc n.| | k j m Q Q w : 2 2 6 C.: : m   ",
"& * r : : Y ^ j 3 C w t ! j 1.] v.F 4X7.7Xx.].GXGX<X1Xs.s.s.W.W.s.GXGX|.W.a.<XGXGXM.h.6X7.-Xc n. .o.j A { A r Y W ^ J.: : C 9   ",
"o ; $ r 2 7 A.S.S.A.A.K.j b U S...5XT.7Xh.+X!.rXs.s.s.a.s.s.a.s.W.s.s.qXFX_.s.a.W.qXM.h.6XO.*X9.I.P v j K.J.K.K.S.A.6 : C * =   ",
"+ = : $ w w r w r t t 5 5 U t.w.} R.6Xj.@XW.i.s.W.W.a.9XyXuXiXaXs.s.s.s.W.9XGXFXZXW.}.f.z.7X#XT q.r.U 5 r i r r w 0 0 A : : *   ",
"# $ ; ; 2 9 2 0 0 0 w j P U w.<.%X+.z.f.W.a.MXW.CXFXZX+X+X!.9XwXGXGX1Xs.s.W.>XSXa.E.s.[.BXx.6.P.{ r.P b k w w 0 9 2 2 9 :.: ;   ",
"X = ; $ t q w r t t g z U r.4X-X6.K xX!..Xi.tXCX1XW.s.s.s.W.a.@X!.W.ZXCX|.W.s.9XFXVXa.SXrXXXS 6.4X&Xq.,.v z m i t t t Q ; : *   ",
"o ; $ C w d w r i Z j n $X{ | c.G x.qXmX/.GXqX!.W.s.>XZXZXgXnXNXeX!.!.zXfX XW.W.qXOX@XSX!.>Xx.` m.| 8.#XN j Z i i r s w C = :   ",
"O $ B 0 w m w t m z 6 I e.+.-XK S {.+XrX+X1XW.~.AXyXwX'.{.{.iXaXdXcXiX}.^.mX].W.W.FX@XVXa.0X_.g._ -X} 0.U 6 5 m t t t w 0 H *   ",
"o r w w 0 w t i Z j b U q.@.3. .x.FXE.i.AXW.rXeX!.~.].].|.dX|.|.}.|.aXpX0X'.GXQ.W.FXFXu.W.`._.x.O.3.| q.I b j Z i t r 0 w w i   ",
"o 0 s i w w w = : j b I w.7.+.D _.9Xs.eXeXZX X~.'.].fXZXGXGXGXGXaXyX|.dXGX{.].ZX@Xs.FXNXs.s.GX(.F +.+.w.I v j : t t 2 w w >.0   ",
". w w w r w % $.%.j U r.%X6X+.x.vXW.+XGXMXs.W.^.].AXcXGXdX;XhXpXpXFXpX,XaXuX1XaXwXQ.wXi.xXu.FX Xj.+.7X$Xr.U j %.%.t t w 2 0 0   ",
". w q w 0 * ~ Q e g J 8.P.D.| x.1XW.FXgX!.W.W.vXfXfXnX:X<XyXyXwX:X<XFXpX;XFX].pXiXW.3XeX.Xa.GXGXj.] I.P.` J g 5 $.$.w B w 0 0   ",
". q w w w ; ~ e *.N ] G.7.+.c /.W.eXGXW.W.W.ZX'.9XFX,X<XsXCXjXdXNX3XfXfX;XhX3XqXGXW.|.GXXXs.GXGXoXc G.Z.G.] N N e $.$ e w 0 0   ",
". q w n A t ~ $ j N ] n.x 7.F '.s.GXqXs.9X>XqX/.SX>X3XbXAX3XhXGXGXFX<XfX;XaX<X[.SX!.{.GXs.W.GXE..XW 5.x n.] N N * $.Z H r w 0   ",
". w w m Q t ! , j N ] n.x 7.F ].>XGXW.s.W.bX^.FXGX,XuXGX2XNXjXGXGXGX2XfX:XaXaX|.{.!.9XFXs.W.GXW..X^ 2.N v.F.N j % $.Z ~ A w w   ",
". w q m H t ~ 8 j N _ c.x 7.F _.:XGXW.W.W.GXFX{.hX|.hXhX:XSXGXGXGXGXAXwX<XGX|.fX}.!.AXeXs.W.GX~.XX' 2.x v.5.N j 8 $.i H A w 0   ",
". 0 w n A i ! % j N ] c.x Z.F ].GX3XW.s.s.GX/.`.GX}.dXhX:XNX2XGXFXbXhX2XFXqXdXSX1X~.gXiXW.0XGXp.XX' 5.c v.] N N % $.Z H t w 0   ",
"o r w w w ; #.9 j F ] U.5.3.G _.GX1Xs.s.s.eX/.`.GX}.dXdX:XZX2XdXGXdXjXFXyX<XGX}.{.AXSXs.W.eX!.9X.XG O.V.D.] N j e $.$ t r w q   ",
"o r w m i % ~ Z r z J *.T.G.W x.GX1Xp.s.~.wX/.OXGX|.pXFX<XyXFXhX2X:X2X:X:XcX:XGXeX X XW.^.xXs.GXx._ R.P...K z 6 #.$.w t w w 0   ",
"X r 0 m r w $ $.%.j U t.*X6X+.x.+XGXs.W.Q.nX^.bXSXeX|.gXFX3X:XbXCXdXwXCXGXMX9X'.~.gXW.s.rXQ.FXGXx.+.7X$X8.U j %.%.t t A w w 0   ",
"X w p 0 w 0 t : , j D I w.3.+.G _.GXW.s.s.GX/.0XyXCXzX|.bXyXhX<X3X8XfXiX9X}.'.~.vX!.s.`.tXFX0X).G +.3.q.U b j , i t t t w >.0   ",
". n 0 0 2 w m i m j z U t. .5.7.x.[.s.W.W.ZXwXQ.qXmXiX9X|.CXgX|.}.}.}.}.}.`.qXZXOXW.^.FXNXW.FXx.3.3. .q.U v j Z m i t w w q H   ",
"O = r 0 w w r i i z 6 U 0. .6X` N [.,XW.@XVXFX XQ._.FX|.~.qXjXAXSXdXiXiXeXgX+Xs.s.[.FXeXW.@X`.c 8.=X9.8.U 5 z Z i t t w : A =   ",
"+ ; $ i q =.w t i Z j x =Xq.| k.G x.GXs.W.p.E.ZXW.W.Q.FX3XQ.Q.`.eXiX1XGXs.s.W.W.y.FXXXW.s.CXj.Q c.~ q.$Xx j Z m i r =.w C = ;   ",
"+ ; ; $ r r r r t i 6 x U r.*X6X6.K d.,XW.W.W.FXwXW.W.W.wX3X~.Q.Q.~..XW.W.W.qXFX.X.Xu.E.VXc.x 6.6X*Xq.U z z m t r t q H : : =   ",
"$ $ : ; 9 9 9 9 0 w t k K U w.] -X+.x.b.`.FXa.W.GXeXs.s.wX/.wXFXGXyXiXiXCXGXFXu.E..Xu.u.oXx.+.F.{ q.U J j t w q 0 0 0 3 :.: ;   ",
"+ = ; $ 0 q 0 w q w t 5 5 U e.w._ =X#Xk.AXW.p.s.].3XqX[.W.s.s.s.a.(.9Xs.a.u.i.s.u.s.s.M.h.7X=XW q.e.,.5 5 m t r w q 0 C ; : =   ",
"+ : $ C 3 4 J.J.L.L.L.L.j v U %X4.-XP.4Xk.DX,XW.s.9XFXwX>Xs.s.s.s.W.s.s.s.s.s.u.i.9Xm.k.7X3.I.4.1.U v j L.L.L.L.J.S.> 3 B * ;   ",
"O $ n : 2 g ^ 3 3 H t E ` j B.] m.N *X5.5Xl.XXgX>XQ.s.+X(.GX,X1XW.s.s.s.s.tX<XGXFXoXz.4X1.4Xx b. .A.j A ` Q r 3 3 ^ L.: : C ;   ",
"o t 3 3 X.T 2 3 0 C A Q ! j j  . .n.x $X@.+.x x.`._.GX_.`.Q.s.9XGXGXGXGXGXGX_._.x.G @.J.#XN n.] ] k j m Q ! 0 0 3 : h V.: : u   ",
"o 0 4 4 X.$ : = ; 0 q t t : j j ] 7.n.3.W O.6._ S x.[.|.FX0XW.s.s.s.0X[. X_.z.J G 6.=X_ 9.f. .] h j , t t m $ ; 0 2 : 3 n J.0   ",
"X 0 J.2 * : * A C C C M M ` { j j  . .K.w.3.*Xb.` 3.c z.x.OX_._._.^./.x.h.S G.` v.-X| q.Z.] ] j j ` ~ H C A Q A A 3 2 : 3 J.0   ",
"X q J.* 2 $ A m : $ = * $ ; r 6 j j 3.U q.q.-XY -X@.+. .] x c F N j F +.+.@.6.-X| -Xr.r.U 1.j j ` q * $ i = @ : C C : : * J.0   ",
". 0 A.: 6 * C : B 0 r r 0 m 0 ! 6 k j S U r.r.8...' O.6XP.O.7.7.7.7.7.F.7XZ.| ..0.r.0.U D h j D ` * r 9 r r 0 m : C # V : J.0   ",
". 0 J.3 m : C $ 2 0 2 : r 9 $ * e < 6 j x L &.*X0.q.w.$XL.3.c N N c K.D.#Xw.t.8.%X&.J z h 6 ~ t * w r t 9 2 0 0 $ M 0 M 2 J.0   ",
". 0 C.n m 0 m $ m : T.] 2 0 ; w e ! m f 5 j c c I U I r.J T.c.n.n.b.U.9.r.U U U N 6 k r f m m t ; % q q T N.r w $ M 2 w n J.0   ",
"X 0 C.n m 9 B $ n ; F.^ 9 9 % 0 t H m W m w 5 j g D v U b ] ] ] ] ] ] L U D b 5 j q : , m m t t 2 = q 0 g V.2 r $ M 2 r n J.0   ",
". 0 J.0 m : C $ 2 0 = : 0 : $ $ w C H W t 0 ! i 5 j j j z k j j j j j z j j z r m m : : t Q Q e $ 0 9 r ; ; 3 3 $ m 0 n : J.0   ",
". 0 J.: 3 * C ; r 2 w w : w : C = q w R t 2 A t i 0 : ~ z j j j j j j z #.: i t t t ; : r 0 0 ; C $ 3 0 3 r 0 n : M # j 3 J.0   ",
". 0 J.2 3 # m M ; $ $ # # * w C $ ^ 2 ( r 2 A r t t $ Q 9 : $ 8 ; $ 9 A Q $ q t w t ; ; 2 9 0 $ C : $ $ 2 @ # ; m m = l : J.0   ",
"X 0 L.l : : * m C m n n r B C * : 3 T ( w 2 Q w 0 r w * Q Q A Q H C Q Q $ w 0 w w t ; ; : ) 3 2 * C C m i r m m m : * : l J.0   ",
"X 0 6 V.( : : * * : : 2 : * $ = : T N.4 w 2 w p B w 0 w $ ; r w r t = : q 9 0 0 ;.t = : 3 n X.: = * * : 0 r * * : 3 : 3 J.K.0   ",
"o m : 2 V./ : : : u m m n : 2 : T / 2 2 A : C w w 0 0 w w w C B B A w 0 0 w w 0 0 A = A 0 3 6 R : : 2 0 m C : : : : g C.kX: C   ",
"a * r : : 3 l h : w : W u / R.2 u = 2 B ; ;.* n 0 0 q w w w m w w C w 3 2 0 0 0 C ; -.* w : 2 ; 3 L.Y w w w : g : T J.kXkXlX*   ",
"o : * n : B.R ( R T T R / N./ / 1.* C = ; : : $ m 0 ;.w 0 t m m m 0 0 0 q ;.0 H ; : : : $ r ; B.o.R 1.R R R / / R ) B.: lX$ :   ",
"o s : * 0 3 2 3 0 3 3 0 3 2 0 3 3 B ; : ; : ; : * w w w 0 0 0 w w 0 0 0 0 3 H : : ; * ; : ; 3 0 0 0 0 0 0 0 0 0 0 3 2 C ; : &   ",
"                                                                                                                                "
};
