/* XPM */
static char *a5b479b724124bd4e806aeaa71dc7018oVGF8684UNUpUcK5[] = {
/* columns rows colors chars-per-pixel */
"64 64 243 2 ",
"   c #010101",
".  c #07070A",
"X  c #07080B",
"o  c #08090D",
"O  c #15160F",
"+  c #0C0D14",
"@  c #0F0F19",
"#  c #120F18",
"$  c #0F1117",
"%  c #0F1119",
"&  c #13131C",
"*  c #1A141D",
"=  c #18191C",
"-  c #221C1E",
";  c #2C2C14",
":  c #151621",
">  c #1A1622",
",  c #161923",
"<  c #1A1A25",
"1  c #171C2B",
"2  c #1B1D2A",
"3  c #161E33",
"4  c #231B25",
"5  c #2A1C25",
"6  c #231E2A",
"7  c #2A1B29",
"8  c #331F2A",
"9  c #2C1E31",
"0  c #17202D",
"q  c #1D212D",
"w  c #1E2332",
"e  c #172837",
"r  c #1C2D3B",
"t  c #13333E",
"y  c #272225",
"u  c #22222D",
"i  c #2B232E",
"p  c #35222A",
"a  c #333420",
"s  c #222533",
"d  c #2C2533",
"f  c #242936",
"g  c #2B2935",
"h  c #262B3A",
"j  c #2A2D3B",
"k  c #322734",
"l  c #32273A",
"z  c #342C3C",
"x  c #392C3B",
"c  c #24303E",
"v  c #2B303E",
"b  c #33313E",
"n  c #461F2A",
"m  c #57352A",
"M  c #482C37",
"N  c #552F3B",
"B  c #473637",
"V  c #4D313A",
"C  c #5F3136",
"Z  c #54313B",
"A  c #5B333D",
"S  c #64353A",
"D  c #68363A",
"F  c #69393F",
"G  c #4A4416",
"H  c #56472D",
"J  c #6A4C38",
"K  c #716B27",
"L  c #1B2F42",
"P  c #1A3849",
"I  c #163D52",
"U  c #262F41",
"Y  c #2C2F41",
"T  c #392E41",
"R  c #253341",
"E  c #2C3443",
"W  c #2D3946",
"Q  c #2C3649",
"!  c #233B4B",
"~  c #2E3A4B",
"^  c #333444",
"/  c #3C3444",
"(  c #33364A",
")  c #383748",
"_  c #323B4C",
"`  c #3B3C4C",
"'  c #2F3D51",
"]  c #333D51",
"[  c #3B3D52",
"{  c #333C58",
"}  c #463947",
"|  c #433C4D",
" . c #533243",
".. c #423E51",
"X. c #493E51",
"o. c #6F3E44",
"O. c #144654",
"+. c #1A4757",
"@. c #154C5B",
"#. c #19515D",
"$. c #3A404F",
"%. c #264757",
"&. c #344254",
"*. c #3B4254",
"=. c #34455A",
"-. c #3B455B",
";. c #354A5C",
":. c #3C495D",
">. c #1C4962",
",. c #155463",
"<. c #175765",
"1. c #12566B",
"2. c #2B4560",
"3. c #354C61",
"4. c #394B62",
"5. c #265666",
"6. c #385265",
"7. c #265D76",
"8. c #0D6475",
"9. c #126976",
"0. c #266677",
"q. c #49414E",
"w. c #5D454E",
"e. c #444252",
"r. c #4B4454",
"t. c #494758",
"y. c #424A5D",
"u. c #4C4B5C",
"i. c #534455",
"p. c #544858",
"a. c #544B5A",
"s. c #5A4E5D",
"d. c #5B505E",
"f. c #614C5B",
"g. c #72545D",
"h. c #434D62",
"j. c #4A4D61",
"k. c #564F62",
"l. c #455065",
"z. c #4C5266",
"x. c #47556B",
"c. c #4B546A",
"v. c #5D5362",
"b. c #52556C",
"n. c #58586B",
"m. c #4D5B73",
"M. c #4D5C78",
"N. c #535C73",
"B. c #5A5D73",
"V. c #585D79",
"C. c #655464",
"Z. c #695968",
"A. c #755B66",
"S. c #785B66",
"D. c #755D69",
"F. c #795C68",
"G. c #605F73",
"H. c #5B6177",
"J. c #55627C",
"K. c #5C637B",
"L. c #5C687E",
"P. c #756168",
"I. c #65667A",
"U. c #6B657A",
"Y. c #74687A",
"T. c #993436",
"R. c #A5373D",
"E. c #B14937",
"W. c #AA563D",
"Q. c #8E7533",
"!. c #CD4C38",
"~. c #E9462F",
"^. c #FA462B",
"/. c #F64A2A",
"(. c #FB4C2C",
"). c #FB512D",
"_. c #F95A2D",
"`. c #E5573B",
"'. c #EB553C",
"]. c #EC5D3B",
"[. c #F75733",
"{. c #F9612F",
"}. c #F96633",
"|. c #944E4F",
" X c #835F50",
".X c #86636D",
"XX c #E45941",
"oX c #DC6041",
"OX c #E86043",
"+X c #B38E35",
"@X c #B0A02A",
"#X c #D1B231",
"$X c #D4B435",
"%X c #FAA73F",
"&X c #FBAB3F",
"*X c #EFB637",
"=X c #D1C428",
"-X c #F6DD37",
";X c #E98948",
":X c #FCA541",
">X c #F7AB40",
",X c #FBAB41",
"<X c #F7B643",
"1X c #FAB444",
"2X c #187686",
"3X c #16778E",
"4X c #2C6882",
"5X c #5D6684",
"6X c #656882",
"7X c #767387",
"8X c #7A768D",
"9X c #8F7789",
"0X c #85798A",
"qX c #877A8B",
"wX c #13838B",
"eX c #0A8D96",
"rX c #148896",
"tX c #09949A",
"yX c #07989D",
"uX c #228597",
"iX c #089DA5",
"pX c #0C9CA4",
"aX c #1696AB",
"sX c #129EA9",
"dX c #05A4AA",
"fX c #09A5A8",
"gX c #0AA4AB",
"hX c #11A2AB",
"jX c #0DABB3",
"kX c #0AAAB7",
"lX c #14A9B5",
"zX c #0DB3BE",
"xX c #0BB9C6",
"cX c #18B8C4",
"vX c #0BC1C8",
"bX c #0ACCDB",
"nX c #08D4D8",
"mX c #03DDE5",
"MX c #04E6EB",
"NX c #07F4EA",
"BX c #8E808C",
"VX c #8C8A95",
"CX c #959AA4",
/* pixels */
"                                                                                                                                ",
"X =X< & h s w s s s s s s s s s s _ < 2 < & : < & v f f f f f f f s s f s s _ 2 2 : & : < & u q q w w s s s w s s q w _ < 2 K   ",
"o 2 & Q < P eXtXyXtXeXeXtXyXtXyXt q Q : < 2 2 & ] f Q.s s f s s s f s s s +Xs _ < 2 2 2 & f , L eXeXiXtXeXtXeXeXeXeXI 2 Q , 2   ",
"; & R q 2 w +.P P h 2 q R >.L w 2.2 2 Q , K & R 2 s s s s f Q f f E f s s s f 2 ] < Q.& f < , 2 u r @.w ! h 2 P P @.pX2 1 Q :   ",
". h 2 q gXI 2 2 2 h v W R q 2 2 ,.P 2 w E 2 ~ f f 2 R s f f ~ E _ _ s f f s q s s Q : E s w 0 @.2 q 2 q R E 2 2 2 2 e pX2 2 E   ",
"X w e O.1.< < : : 2 2 2 2 : % 2 2 8.+.e w 2 E p f f h s & : f f f f , 2 s q f f $Xf : < w r 8.2 2 : : 2 2 f : & 2 , 2 r <.jXs   ",
"X s dXP 2 2 , E E h h h h E W & q q I ,.s 2 ~ h f h s : &.] U ~ _ ^ &.&.< f h f f f : > e +.q 2 : W W v h v E E W 2 : < I yXs   ",
". s gX< 2 & E R < @ & & @ : q ~ & w q ,.h q _ j _ h : &.j u & u < # i _ *.: j h h h : < s s w & ~ < & # q , $ < E W 1 2 3 iXs   ",
". w pX2 w : E < R q s u q f 2 W , f f #.h q ] j j s 2 :.f ] s ^ E v *.s -.2 j j j f < < f f s , ~ & s 2 q q s v < W % ! 2 dXs   ",
". s gXq E 2 E & 2 q q 2 q < & & u &.&.#.j s *.v *.:.j : , j C 2 , } f : y.b ;.&.v j < < h =.=.f & w s f s q q w & E s R 2 dXs   ",
". s pXv R q E & h , lX0.s q < s j _ v %.v s *.v ^ *.^ ^ 4 ) > T.!.> *.u y.) h.*.^ E 2 2 E v j j 2 & q w P rXq h & W q w R iXs   ",
". s pXh E 2 E & h < 3X%.f u = f j ] j %.^ f h.^ h.*.` ) = | > T.;X< u.= c.| c.*.^ ^ 2 2 E 3.j j q = s s r 2Xs f + ~ q s R iXs   ",
". s gXs R 2 ~ & q s < 2 f q & & j ;.;.%.^ g h.` l.c.| : , g F u 2 } e.> c.} m.c.^ ^ u 6 E ;.;.g # f f v , < f s & W s E 2 pXs   ",
". s gX2 w : E < j 2 s h s Q s =.2 E ^ 5.) j j.` ` [ i H.z y.j e.j.j c./ N.i ` ` ^ ` u 6 Y E v < ;.& h s s s q v 2 W & ! 2 pXs   ",
". s iX< 2 & E ~ < $ : = & : v ;.& 4XE 7.` j z.$.e.e.4 N.e.g > i = 4 / c.H., e.N.^ | 6 u Q ( j > 3.s & + h # % < W W 2 ! < sXs   ",
". s gX2 < 2 , _ ~ ~ _ _ ' =.3.< Q E 7.0.*.j N.e.e.e.r.6 K.H.N.H.H.N.K.K.4 r.r.r.e.e.6 z ] 5.E E < ;.;.] _ ~ _ ~ ~ 2 2 , w pXs   ",
". s e uX1.2 2 : < s f g g 2 & h Q aX6.%.*.z N.A u.e.r.r.> i X.p.p.q.d ) r.r.u.r.*Xe.s b =._ lX( U 2 6 d g E , < 2 w 2 e rXdXs   ",
". R q 2 3X<.q 2 s ~ &.&.;.j E E vX4X[ ` M.` B.e.e.t.p.p.p.p.K.K.I.I.p.p.p.p.p.r.r.J.b N.` *.] ;._ f E E &.&.f 2 w q r tX2 2 E   ",
"; : h 2 2 O.+.P w ~ f j =.2Xj =.] *.y.M.6 E.* z.u.p.p.p.s.d.H.C.v.H.s.s.s.p.p.p.N.j E.6 h.[ f ~ [ uX2X_ 3._ h O.%.>.gX2 2 ~ u   ",
"o < & h q t iXsXsXsXsXlXlXzXxXvX6.u m.6 z l x > N.p.Z s.s.d.v.s.s.v.s.s.C. .p.5Xd z x x 2 *.s 3.xXzXzXgXhXgXjXhXpXiXr 2 ~ : ,   ",
"+ , 2 & f f h f h j j v ^ ^ _ ` [ N.d z x 6 l T 5 k.U.U.U.U.U.U.U.Y./ X.q./ 5X/ / k d l l * e.[ [ ) ( ^ E v h h f s s _ 2 2 :   ",
"% & < < q u q s s s f j j v ^ ^ ^ ) !.x 9 n.5 T M i.i.p.i.i.i.i.i.i.p.i.i.p.p.'.X.x n.* x x ^ ^ ( ^ ^ v j f f s u q q u =X2 <   ",
"X , < & j f f h j j E ^ ^ ) ` K.H.J.z | } 9 X.r.d I.7XY.Y.Y.Z.C.C.Z.Z.Z.0X8XV.k r.r.5 | | < n.H.e.e.` ` ) ^ E v j j j &.< 2 :   ",
"o 2 & ~ f J f h v ^ ^ ( ) ` e.e. Xp.b.6 X.e.X.4 B.f.J A.0X0X0X0X0XA.A.A.A.J A.6Xk X.e.X.> r.p.J r.e.e.` ) ^ ^ v v h H f ~ , 2   ",
"O & Q s f E f j E -.^ ^ c...e.u.r.n.s.5X9 A 9 5XZ.f.A.A.A.A.A.A.A.A.A.S.A.A.D.0XN.l o.6 U.p.p.p.r.r.e.t.` y.^ E j j j f s ] :   ",
"o h f f s f j v ^ :.l.c.c.e.r.p.p.s.f.0Xb.i H.D.A.A.A.D.A.S.A.F.S.S.A.S.A.F.F.S.F.6Xs B.VXf.f.6Xp.r.r.u.b.c.) ^ v j h s f f v   ",
"o s H v f f f , 2 / ` ` | i i & * p 5 5 S.0Xi A.A.A.F.|.F.A.A.A.S.A.S.A.A.F.A.A..X7 Y.A.8 p p 4 * d k X.e.j.6 4 j h q f f -Xs   ",
". f f f h f = h.l.h.B.B.n.I.Y.'.].].].`.`.oXZ 5 5 5 5 5 5 5 5 5 i 5 5 5 5 5 5 5 4 V OX`.OX].].].].7XI.I.H.c.N.c.l.j h f q s s   ",
". f s f s : :.*.g * > b u.P.> M Z V V Z Z Z Z Z Z Z Z Z Z N Z Z Z Z Z Z Z Z Z Z Z Z V Z Z V V V M : 7XJ.| < , g h.h.f Q f s s   ",
". f f f f < :.d m.x.mX9.k * !. .Z A A A A A A A A A A A A A A A A A A A A A |.A A A A A A Z A Z Z `.< 8 zXMXM.N.d h.& f f s s   ",
". f f R _ z :.& l.MXvX> ~._.(.).).).(.(.).).).).(./.^.^.^.^.^.^.^.^.^.^.^.^.^.).(.(.^.(./.).(.).).(.[.~.7 NXnXm.: l.^ ] h f s   ",
". f f E &.j -.4 M.MX2 E.[.,X&X%X:X&X,X&X%X&X,X,X&X,X,X&X,X&X,X&X&X&X,X,X,X&X:X:X,X:X,X%X:X,X,X,X%X:X:X}.w.4 bXJ.= l.^ :._ f f   ",
". f f E &.j -.y M.NX< R.{.>X>X>X1X>X1X&X&X>X&X&X<X<X<X1X1X1X<X1X<X1X1X1X<X1X1X1X1X1X>X,X1X>X1X1X1X1X1X}.f.i bXJ.y h.v ] _ f s   ",
". s f R _ z -.* m.mXjX6 ~.[.(.^./.).(.(.(.^./.^.^.^.(./.^.).(.(.^.^.^.^.^.).).).(.(._.(.(.).^.(.(.(.}.~.5 NXbXm.& l.^ ] j f s   ",
"o h f f f < y.u z.m.mXpXi & `. .N A A A A A A A A A A A A A A A A A A A A A A A A A A A A A A N A `.* x xXmXM.z.g h.& j h f f   ",
"o h f E v & :.^ g > < b n.Y.< A A A A S S S D S S D D D S D D S S D S S S S S S S S A S S A S S Z < 7XI.p.# & l y.h.f j f f s   ",
"X h s E h f & h.x.y.z.b.u.U.Y.'.'.'.'.'.`.OXZ 5 5 5 5 5 5 5 5 5 5 5 5 5 5 5 5 5 5 M '.'.'.'.'.`.XXY.U.n.B.N.c.c.l.j j _ f f s   ",
"X f m s f s h 2 6 / ) | q.i d * * i - * g.BX> D.D.D.A.F.A.S.S.S.S.S.S.A.S.F.S.F.D.7 Y. X4 5 i 4 * x i q.e.j.u 6 v j h j f -Xs   ",
". R s s q f E v E h.h.c.N.t.e.r.s.s.C.0XB.) B.D.A.A..XD.A.A.A.A.A.A.A.S.A.S.A.S.P.V.z V.0Xv.s.v.r.q.| u.b.c.) ^ E v j f f f ]   ",
"O , h s f f h j v -.( ` x.` e.r.p.7Xv.V.z E.i B.A.A.D.A.A.A.A.D.A.A.A.A.S.9XD.A.V.} R.d B.s.G.p.k.e.| e.) h.^ ^ v j j f 2 _ ,   ",
"+ < & v f Q.f j v ^ ^ ^ ` ` $.| +Xr.M.6 X.X.X.> B.Z.Q.A.A.A.0X0X0XA.A.A.D.+XD.5Xb X.e.} * b.p.+Xe.e.| ` ( ) ^ E v h Q.f ~ , <   ",
"+ < < & h h h h j v E ( ) ` *.*.[ V.) | | 7 | e.x G.Z.Z.Z.Z.Z.C.Z.C.C.Z.Z.Z.K.| e.| i / / 6 t.e.e.e.*.) ^ ^ Y j h j f ] 2 2 ,   ",
"& & 2 < u u u u s f j j Y ^ ^ ^ ) [ !.x 9 b.7 T M s.s.p.p.i.p.p.i.i.p.p.p.p.p.'.X.x n.4 x k ..` ) ) ^ j j j f f s s s w =X2 <   ",
"+ > < & s f s f f f j j E E ( [ *.M.6 x x 4 l T 4 k.p.r.r.K.7X8X8X/ } / / | 6Xg ..t.7 k x * *.Y _ ^ ^ E R Y j h f f s ~ < 2 ,   ",
"+ 2 & ~ w e gXgXjXjXkXkXjXxXxXbX2.` M.6 z l l 4 c.p.M s.s.v.v.v.C.d.s.d.d.V d.5Xz X.` d < h.s 2.xXxXxXkXkXjXjXjXgXpX3 w Q : <   ",
"O & R 2 q L >.w w ' j &.3.3X_ _ ( =.( x.< C > j.N.p.p.p.p.p.K.v.v.K.s.s.p.p.| 6X5Xd o.* [ [ [ ] ' ( rX_ 6.&.h w w >.kX2 2 ~ <   ",
"o j w w 8.@.q w s ~ _ &.;.^ v E xX3.( ` h./ z.r./ r.r.p.p.p.L.B.K.K.p.p.p.e.p.r.r.c.g z.` ) { uX( < ^ E &.=.s s w 2 P rX2 2 c   ",
"o s e e 8.& 2 , < s g j j 2 & ( ] hX_ 2.[ j L.Z e./ b r.> i r.r.u.r.6 ) r.r.r.r.$Xj.s s -.=.2X] E 2 6 j j E & < s q 2 w R dXs   ",
"X s gXq : 2 : _ ~ Q _ E W 3.6., U _ 3.2X` ^ J.e.| e.e.i K.K.y.n.B.j.K.6X6 e.e.e.e.t.s j ' =.-.Y 2 4.;.] _ _ &._ _ w q 2 w dXs   ",
"X f gX: q & _ E 2 & , = & < h 6.> Q h 2X*.z N.` ` e.6 V...z * i > 2 } N.H.4 e.e.| [ s ( Q Y ( > 4.f : & v , # 2 ~ ~ 2 2 : gXs   ",
". s iX2 r : ~ 2 Q s h h s E s ;.2 ^ ^ 7._ j x.` ` ` i J.b c./ t.j.` c./ N.6 [ ` ` ` s _ _ E ^ 2 3.: j u h h s E 2 ~ @ ! 2 gXs   ",
". s gXw E 2 ~ & q s q 2 h u & : g ;.3.5.^ j x.) l.m.| > 2 ) A d i V ^ < c.e.m.h.` ` s u ^ 6.;.j : f h j q q s s & W s W q dXs   ",
". s yXR E s E & E 2 cX7.q s > f g =.E 5.E f x.^ ` *.` ` 4 e.* R.W., c.- c.) c.e.) ) s 6 E E E j < = f f +.wXh f & W q f R dXs   ",
"X s yXR E u Q & R < sX>.u u = s j ] E %.v f 4.^ ) :.) ^ = ` < T.W.> y.- l.) c.*.^ ^ 2 2 E E j j q , f s L rXq h & W q h R dXs   ",
". s gXs E 2 ~ & q s , 2 s 2 & & f ~ ' %.j s =.v -.4.z > , j } > , B ( , :.^ :.-.E E 2 2 j &.&.g & s u h < < w w & E s R 2 gXs   ",
". s gX2 w : ~ < h q f f 2 f 2 ~ , f f #.j q _ j v s 2 :.f [ h E ( E *.s :.2 v v j j < 2 h s s < ~ & w s s h s R 2 W @ P w gXs   ",
". s gXq w % E W < & & % % : f ~ & >.q <.h q _ h j j & *.u 2 & u < & s _ &.& f j f j < < q u s & ~ 2 & & q # % < E E , I 2 gXs   ",
"X s jXI 2 2 : E ~ E R R h Q ~ : 2 w @.<.f q &.f s h f : &.&._ &.] _ &.*.& f s f f j < < 2 1.w q : ~ ~ E v h E E E 2 : 2 I gXs   ",
"X s r rX<.2 2 : : 2 2 q 2 : & , 2 @.wXe f q f n Q f s f & < h f h j > 2 f u s s #Xj , 2 w R 8.2 , : : 2 s h : : 2 w 2 w gXhXs   ",
"o E 2 q rX,.2 2 2 c E E R 2 q 2 +.,.q q _ 2 ~ f f s s f f f ~ Q Q ~ f s s f f s s _ , _ s w r #.2 2 q s E ~ 2 2 2 2 L yXVX2 ~   ",
"G : h 2 2 w I P 2 f 2 %.c ,.xXq c , q Q < #X: R s s f f f f E f f ~ f w q s s s ~ < @X: f 2 q 1 w jXO.f f f 2 L 2 +.dXVXVXCX:   ",
"o 2 : R 2 eX#.<.#.@.@.#.,.wX,.,.2X: ~ , 2 2 2 & E s #Xf s j E E E s s s f #Xs ] < 2 2 2 & h < eX9.#.2X#.#.#.,.,.,.<.eX2 CX& 2   ",
"o H 2 : s w q w s w w s w q s s w Q < 2 < 2 < 2 : f f f s s s f f s s s s w ] 2 2 < : < 2 < w s s s s s s s s s s w w ~ < 2 a   ",
"                                                                                                                                "
};
