/* XPM */
static char *b05141f4f17c4e57f93c12ade49730529yFqtlScLJoEBipX[] = {
/* columns rows colors chars-per-pixel */
"64 64 254 2 ",
"   c #000101",
".  c #03040B",
"X  c #05070D",
"o  c #040613",
"O  c #050913",
"+  c #070A19",
"@  c #0C131E",
"#  c #060826",
"$  c #060C24",
"%  c #0A0C24",
"&  c #0B0D2B",
"*  c #110E2E",
"=  c #0B1126",
"-  c #0C122C",
";  c #11122A",
":  c #0D0E32",
">  c #0C0F38",
",  c #110E35",
"<  c #0D1333",
"1  c #0E143B",
"2  c #0C1839",
"3  c #111233",
"4  c #12143C",
"5  c #121B39",
"6  c #19243E",
"7  c #111342",
"8  c #121442",
"9  c #131844",
"0  c #181A49",
"q  c #191D55",
"w  c #221B58",
"e  c #0F2A4E",
"r  c #16264A",
"t  c #192658",
"y  c #193658",
"u  c #232358",
"i  c #213A5B",
"p  c #1F1F6D",
"a  c #261E69",
"s  c #291E74",
"d  c #19256A",
"f  c #183868",
"g  c #162672",
"h  c #1B2572",
"j  c #1C2975",
"k  c #1E257A",
"l  c #1E2A7A",
"z  c #0D3F79",
"x  c #1B367A",
"c  c #262569",
"v  c #2A2C6B",
"b  c #28366A",
"n  c #222475",
"m  c #2A2775",
"M  c #212A75",
"N  c #21257C",
"B  c #2C247C",
"V  c #222A7B",
"C  c #312578",
"Z  c #2C3173",
"A  c #253479",
"S  c #323578",
"D  c #1E465E",
"F  c #1B466C",
"G  c #224466",
"H  c #215777",
"J  c #1E2881",
"K  c #1C3889",
"L  c #1E3B97",
"P  c #222482",
"I  c #272985",
"U  c #38278A",
"Y  c #26388A",
"T  c #32348B",
"R  c #382B97",
"E  c #3E2B94",
"W  c #3C2E9B",
"Q  c #283795",
"!  c #243A94",
"~  c #2C369D",
"^  c #253B9D",
"/  c #2A3A9E",
"(  c #333798",
")  c #34339D",
"_  c #3B319D",
"`  c #3F2EA3",
"'  c #2737A0",
"]  c #2B36A3",
"[  c #263BA2",
"{  c #2A3BA3",
"}  c #3334A1",
"|  c #3D33A1",
" . c #353BA5",
".. c #402A8F",
"X. c #422A95",
"o. c #442799",
"O. c #432C9A",
"+. c #43319D",
"@. c #432CA2",
"#. c #4B2DAA",
"$. c #4433A4",
"%. c #4937AA",
"&. c #4B34AC",
"*. c #5234AC",
"=. c #4C3CB3",
"-. c #4A38B4",
";. c #533BB6",
":. c #194788",
">. c #174E91",
",. c #195798",
"<. c #2B4F93",
"1. c #274599",
"2. c #24449C",
"3. c #197399",
"4. c #2A679C",
"5. c #1E49A6",
"6. c #1A57A7",
"7. c #1E53AB",
"8. c #1D54B5",
"9. c #1E5CB4",
"0. c #1E5DBA",
"q. c #2445A5",
"w. c #2A43A5",
"e. c #2449A6",
"r. c #2A48A7",
"t. c #2446A9",
"y. c #244BA9",
"u. c #2A4BAC",
"i. c #3747A6",
"p. c #2656AB",
"a. c #2253AD",
"s. c #284CB2",
"d. c #2353B2",
"f. c #215BB4",
"g. c #2855B8",
"h. c #225DBB",
"j. c #3551B2",
"k. c #3555B8",
"l. c #1B68A7",
"z. c #1775AD",
"x. c #1D63BC",
"c. c #1C68B8",
"v. c #1A78BC",
"b. c #2262BB",
"n. c #2569B8",
"m. c #306CB5",
"M. c #2676BB",
"N. c #4848BB",
"B. c #5743BE",
"V. c #4157B4",
"C. c #563FC2",
"Z. c #1F5EC3",
"A. c #2559C6",
"S. c #3B5AC8",
"D. c #1C66C2",
"F. c #1669C6",
"G. c #1C6BC5",
"H. c #1D6DCA",
"J. c #1A78C7",
"K. c #1D72CD",
"L. c #1D65D1",
"P. c #1D74D3",
"I. c #1D7BD4",
"U. c #1F77DB",
"Y. c #226AC4",
"T. c #2768C7",
"R. c #3767C8",
"E. c #2274CC",
"W. c #2578C8",
"Q. c #3376CA",
"!. c #2363D1",
"~. c #3A67D4",
"^. c #2679D5",
"/. c #3775D7",
"(. c #287FE0",
"). c #4A48C8",
"_. c #5946C5",
"`. c #4657C6",
"'. c #5553CC",
"]. c #475DD6",
"[. c #585AD5",
"{. c #6051D0",
"}. c #446AD5",
"|. c #4A6BD1",
" X c #4768D8",
".X c #5765D8",
"XX c #5D65DB",
"oX c #5D69DA",
"OX c #6366DA",
"+X c #626BDC",
"@X c #6473DD",
"#X c #5D5EE3",
"$X c #625EE3",
"%X c #4864E3",
"&X c #5D64E2",
"*X c #6262E4",
"=X c #666BE7",
"-X c #1C87BB",
";X c #2381BE",
":X c #1989CA",
">X c #1895CB",
",X c #1C85DB",
"<X c #198BD9",
"1X c #0D94D5",
"2X c #1B93DB",
"3X c #1898D9",
"4X c #2687C9",
"5X c #3387C9",
"6X c #2494CC",
"7X c #2888D7",
"8X c #248CDC",
"9X c #3587D8",
"0X c #2A94DE",
"qX c #2699D8",
"wX c #3695DB",
"eX c #0BAAD4",
"rX c #17A5DC",
"tX c #0DB2DB",
"yX c #24A3DB",
"uX c #1A8AE2",
"iX c #1C8CE3",
"pX c #1D94E2",
"aX c #199AE3",
"sX c #328FE3",
"dX c #2994E2",
"fX c #2499E5",
"gX c #0EACE3",
"hX c #14A3E3",
"jX c #16ABE6",
"kX c #0BB5E5",
"lX c #19B5E5",
"zX c #29A5E4",
"xX c #22B8E7",
"cX c #33B1E9",
"vX c #40A6DD",
"bX c #478CEA",
"nX c #49B6EC",
"mX c #4BBDF2",
"MX c #01C5DF",
"NX c #07CAE6",
"BX c #17C7EA",
"VX c #08D3EA",
"CX c #12D2F2",
"ZX c #23C4EA",
"AX c #34CCED",
"SX c #10E7F5",
"DX c #4AC5EC",
"FX c #56C5ED",
"GX c #4CC5F2",
"HX c #53CDF3",
"JX c #60C1EB",
"KX c #818792",
"LX c #929DCF",
"PX c #91AAD8",
/* pixels */
"  .                                                                         .           .                                       ",
"  _._.V.zX4 | >X( ) ) ) T I s n E R T Y [ % W R , y.l e.I ) m n V _ ) ) M r.A dXfX@ fXaXr y.Y e.l j l g g e.e.e.v.e.5 rX_._._.  ",
". _._.~.Z ) }  .( ) ~ } 4X4X4X_ _ _ _ {.~ ) W 8 w.y.y.y.U _ _ _ e.e.e.6X{ r.r.< fXpXfXcXy.e.e.y.e.y.y.y.e.e.y.e.e.t.u.9 +._._.  ",
"  X.Q.: _ _ 6Xt.t.t.t.y.y.t.t.y.M._ _ _ '.( % } w.y.y.rXe.y.y.y.y.e.y.y.y.6Xy.y.% 8XcXx.x.e.t.e.y.t.t.t.t.y.y.y.e.y.y.u., _.R   ",
"  mXOX) _ m.y.e.t.d l l l l P y.y.4X_ _ | OX .) w.y.>Xy.x k l N N N < y.y.y.y.y.u.y G.H.H.e.t.t.d N N l l N - e.y.y.y.u.' OXnX  ",
"  a.=Xn | e.e.e.S O.X.O.X.O.O.k.y.y.n._ I XX{ CXr.;Xa.t 0XO.X.E X.O._ 1 y.z.y.CXu.y 6.0.7.e.e.Y O.O.X.X.X.X.r.4 e.y.y.y.Q XXY.  ",
"  a.XX) W.y.y.8 O.O.& % < < X.O.Y y.e.t.t.oXm } / d.g.zXO.o.4 < < < X.N.r y.y.e.e.y 0.0.a.y.1.X.O.< 4 : & < O.~.2 e.y.s.} XXE.  ",
"  P.oX) W.e.q X.O.c d.d.f.1.k.O.O.j.t.q.t.XX) } u.2.8XO.U d.!.x.0.f.3 X.+.q y.y.e.y ) p.a.c X.X.4 4Xi.g.a.d.; O.S.4 y.s.) oX:.  ",
"  P.XX( 4Xe.P X./  Xx.VXVX3XR.b.O.|..Xt.q.XX} ) y.b _ X.7.E.>XCXNX:Xf.& X.n a.a.a.0 ) ) y.N X.* Q.}.v.VX3Xg.s.& X.3 e.' ' XXK.  ",
"  P.+X[ T e.P @.2. XR.U * &.E.^.: .X.Xq.t.XX .{ u.Z | a p.VX=.& -.eXF.4 ..N x.x.n.r _ _ r.P E - Q NX%.< &.tXL & X.3 y.[ [ XXK.  ",
"  I.+X^ T y.P O.u.}.$.h h =.E.T.E oX.X{ / *Xa.NXe.S +.U 4XSX&.g g rXx.% E n x.x.n.r _ _ u.P E &  XNX< g 3 kX X< X.4 y.{ [ +XK.  ",
"  I.+X^ T y.N O.t.}.tX$.3 -.E.7X8 .X Xt.y.XX^ Y :.S W 8 j.6XB.3 ;.rX^.3 ..N x.x.G.0 W W s.P X.- Q x.=.4 #.,X^ : X.4 y.[ [ OXI.  ",
"  I.+X^ T y.k X.1.i. XNXNXrX Xh.X..X}.y.y.oXG.H.H.v | O.b.|.n.VXNX}.J.: O.n G.:.cXt c I u.P O.5 4X XT.NXkX Xp.: X.5 4X{ [ OX<X  ",
"  Y.=X^ T y.0 $.O.r.y.j.].k.Y.X.O.Q.D.y.y.+XG.G.G.9.sXX.E 4X|.R.Y.Y.1 X.=.2 c.hXrXu R m.y.q @.O.0 J.[.k.u.s.7 O.S.9 x.[ ' oX,X  ",
"  e.OX^ ( e.y.t O.O.% % % 5 X.O.h.x.Y.e.wX[.G.D.G.D.:.k.X...3 + - < X.`.- x.rXhXhXy H.G.G.G.G O.X.8 = - % - X.|.r d.d.[ ' XX,X  ",
"  e.[.x y.y.y.y.2 O.O.X.X.X.O./.b.9.h.e.e @Xx.SXy.e.G.7.~.O.X.E X.O.@.- 9.x.xXSXhXy K.G.H.H.H.f @.X.X.X.X.X. .2 h.h.{ ' 6..X,X  ",
"  vX=Xu.y.y.D.D.Y.d N P J J k x.x.x.e.e.e.XXx.G.G.P.e.e.e.h N I P N < 9.9.x.xXkXhXy pX,XuXuXH.H.d k k N l N 1 h.x.^ / [ [ [.FX  ",
". f.A.- y.E.H.>XP.P.K.H.ZXZXZXBXlXe.e.e.wX0 8 G.G.U.G.G.G.G.G.a.9.9.9.9.tXrXc.<XqXz FXhXhX>.BXH.P.7X8XG.G.P.0.x.x.9.a.^ = T.5.  ",
"  0X9X7Xy c.I.>XZXP.P.:XE.K.H.H.Y.e.e.9X,.W.y.x G.^.G.G.G.<X:XBXBXBXBX3XaXc.c.cXZ.aX:XGXaXhXhXjXjXjXlXrXH.P.0.9.x.0.h.@ ^.9X0X  ",
"  dXdX;X3XD ^.f >.>.K.2X>X3XBXBXE.y.9X1.>.f J.8.f (.6.G.H.K.,.2X,XBXCXCXy K.5Xx.<Xf fX<X3.hXz.l.l.l.l.,XH.P.9.0.:.Z.u 0XdX0X0X  ",
"  + dXfXfXxXX + O O O O O o O + O O @ J.5 W.Y.J.f.. O O o . O O . X O O o . e.,XS.x.+ pX@ . O O O X O X O X X O O . R.dX0XdX$   ",
"  sXdXdXdX8XDXDXGXmXAXGXGXGXmXmXGXmX$ fX0XE 4 7.L [.*X*X#X#X*X*X$X*X*X#X*X=Xo.O.9 L O.O.= *X#X$X*X*X#X*X&X*X&X&X&X&XZ.h.0X0XsX  ",
". dXdX+ pXDXkXe tXkXAX,.,.l.,.iXuXiXzXr 3.fXh.y.[.) I ) W T B B W n a W W W [.C W +.E 4 B.W W R W _ W N.y.y.y.e.-Xu.'.f.5 0X8X  ",
"X dXa fX9X6XgXgXgXrXxXH.H.H.K.:.:.iXiXiX- xXE.).) } } ) p.qXqXqXyXqXqX6XW _ W [.$.W 4 _ W W _ ) _ W | 6Xy.y.y.y.y.y.u.[.&.o.0X  ",
"  :.m.9X7.H.<XaX,X^.E.H.H.H.H.H.E.lXZXZXfXH T } } ( 5.wXy.y.u.y.q.) ) } 5XW W W ).; $.W W W yXqXqXrXq.u.e.e.y.y.y.yXrXu.'.7.9   ",
"  D.XX7.e.H.H.,X,Xt j j j V h P.K.K.pXfXpXGX) p.~ y.y.y.q.k k J P N 2 ) W j.W W W u W W W qX{ w.< h k h k j < t.y.y.y.e.v.XX_   ",
"  G.XXz.7.H.H.H.4.O.X.E X.X.O.l.E.E.P.I.I.GX} } ~ y.y.5.R.O.E E E X._ 5 W } R.R W u W E qXw.{ 9 +.X.X.E E O.^.< y.y.y.e.eXoX_   ",
"  H.oXa.a.H.H.3 E X.1 < % 1 O.O.7X} } ( } FXB m y.d.y.~.X.E 1 % < & X.| 0 ~ { 5XB t ( ~ p.q.7 +.X.5 < % 8 4 X.E.5 y.y.e.y.oX)   ",
"  G.oXe.7.7.q +.X.K <.a.d.Q 6.O.+.j.) ) a [.e.y.6Xt.].X.O.n.}.A.u.d.0 X.S.5 { { N u ) ) p.1 $.O.w J.w.r.r.z.4 X.8X0 e.e.y.oX~   ",
"  H.XX1.1.7.k O.Y Q.}.1X1XlXw.f.E  X[.W a [.y.>Xy.Z +.O.c. Xc.1X3Xd.d.8 X.n { { n c n ) p.N E U D.].,.aX<X|.zX4 O.9 e.t.e.+Xq.  ",
"  H.+Xe.2.y.N U 8X XT.%.%.BX8XS.> |.[.W B [.y.e.y.v O.H %XjXQ.&.&.c.A.- E n t.q.I u n W j.P ..%  XlX=.&.%.v./.& X.8 e.t.q.@Xq.  ",
"  G.OX5.! y.N E ~.W.@.h g *.SXS.E .X'._ B &Xd.8.Z.S O.X.}.VX*.h d @. X$ ..V A.A.M u n _ u.P O.- /.NX4 g 3 hXK.$ X.9 e.2.e.+Xq.  ",
"  G.OXe.! y.N c x.F.$.d g =.SX~.4 .X'._ _ &XZ.L.L.Z O.3  XVX&.g 9 $./.- X.n ! A Y t _ ) s.P W - /.NXq g 0 3XK.$ E 9 e.2.e.+Xq.  ",
"  G.XXe.^ y.N E 0./.v.%.N.:X/.Y.< .X[.W W XXA.L.!.S E U b.Q.NX&.%.b.xX= X.m e.e.e.q T.T.5.P E < `.3XeX;.=.:X^.< X.4 e.L e.+Xq.  ",
"  I.XXa.y.y.n O.< h.0.x.x.~.T.d X.].'.W W XXA.SX!.S $.X.g.T.W.F.F.h.h.O.o.B u.e.y.q g.A.A.p O.@.2XS.}.F.G.}.rXO.X.4 t.y.e.+Xq.  ",
"  >.+Xy.t.e.r yXO.* 0.b.R.}.A.O.| ; t.t.y..XA.!.!.!.S @.X.Y.4XqX0.h.o.o..Xq.y.e.e.0 y.y.e.! 2XO.w 7Xi.].rXn.C X./.e.e.y.q.+Xq.  ",
"  D.+Xy.y.e.e.1.0XO.0 O.O.- O._ < e.e.e.y.@X' ' T.y.y.r O.X.q U A O.X..Xe.e.e.e.e.t ~ ~ q.e.r.zXO.O.3.O.3.O.X.~.q.e.y.6X~ +Xq.  ",
"  G.+X! y.y.y.e.r zXO.X.X.X.W 5 e.y.e.q.9 OX] ' { Y.y.y.c O.U U E X. X2.e.e.e.e.e.t 2 ~ W.q.e.t.yXO.O.o.W E yXy.g.A.T.~ q.XXq.  ",
"  x.&Xy.e.y.y.e.y.1 & $ % & $ e.y.y.y.y.y.XX) ] ~ s.y.5.t.# & & # # 0.0.0.0.e.x F.u R ' / n.y.t.q.& $ $ # $ A.A.A.g.] ~ ~ .X[   ",
"  U +.'.t.y.y.e y.y.y.y.y.e.y.e.].`.k.y.2.% 1 { ~ / ^ [ 6XqXyXzXqXzXzXcXe E.K.H.f % OX_ W W 9X] { { ] { ^ ^ { ] 5 { { ] ).^.1.  ",
". B.).-.N.q.q.Q y.t.y.e.y.y.e. Xq.q.q.s.3 X.@.[.' ~ ' / { f.G.H.H.P.H.9.c.yXE.bXo.O.w [.W W W R W W W W W W W ) ! Q ~ '.J.%.0X  ",
"  B.B.B J.XXt.F q.l Y q.2.q.q.q.q.^ S.* 6 O.O.R OX' ~ ^ { b.H.K.K.P.P.f.e f.bXE #.@.U * '.W W W W W W W W W _ ~ e { ).qX4X0X0X  ",
"  # _.B._.A.Z v v v v v Z Z Z Z Z Z + %.5 W.W.O.U u v v v v S v v v v v v u U @.n.J.3 ` - u c v c v v v v v v c m u 0X0X0X0X$   ",
"  # B._._.).o $ o o o o o + + o o O % Y.f Y Q fXJ.  . . . . . . o .   . o   ! G.~ I X aX+ . o o o O o + + o o o o . cX0X0X0X+   ",
"  _._.N.o.( 5.t U W W B m B B R W R [.:.l.0X2XfXG jX-XjX:XlXxXlXlXM.x.x.,.x.M.Y.7X2XpXv.DXI.K.9.9.l l l l x y.e.! y.4.0X0X0X0X  ",
". _.*.X.9 W.e.t.y.e.y.q.q.W W W W W W ].:.2XK.. ZXCX2XjXK.K.H.H.K.K.H.9.x.x.D.wX5.pX:XHXiX,XK.9.f.7.a.a.y.y.y.e.y.W.y.r +.R.0X  ",
"  O.'.< 2X3XD.0.y.y.y.t.q.q.n.R W W W W [.@ - kX,.iXiXiXK.K.K.K.K.H.G.H.H.H.b.b.M.O HXjXz.F.G.8.a.u.y.u.u.s.xXlXd.y.y.y.4 ^.,.  ",
"  | GXrX<XI.I.0.x.t J J J N N ] { 7XW W W .XgXgX,.iXiXiX^.h k l l k < K.K.H.b.b.5.y 3XjXpXP.P.Z.V j j M l V - q.e.y.y.y.e.XX$.  ",
"  W HXl.rXE.D.x.4 O.O.W E X.O.^.] ] Q.W W [.gXgXlX,XiXiXzXX.X.W E o.i.2 8.8.e.e.5.r y jX<XP.U., O.O.X.X.X.X.N.5 t.y.y.e.K XXO.  ",
"  O.FX2X<XD.x.3 O.X.4 3 < < W O.W.] } M.`.XXiXiXiXAXy zXX.C 1 & 5 0 X.i.t r.r.r.1.r lXaX,XP.T.O.X.4 - 3 - : X.%.4 e.y.k.I XXW   ",
"  W HX2X2XD.t i.X.0 d.d.9.e.d.E +.m.] ] y.+XxXxXlX,.pXX.u d.9.W.b.1.4 O.Q.0 ) ) c y jXpX2Xh X.X.q M.R.<.1.s.0 X.].9 e.N I +X)   ",
"  W HX2X2XT.N O.Q S.Y.BXNXrX^.d.W wX.X} 4XoXE.E.E.Z _ O.d.f.b.CXNX}.g.< O.h ) W W y lX2XK.k X.- qX~.x.NX:X}.a.: X.5 e.V 2.+X{   ",
"  _ FXx.D.g.N X.2. XgX$.: =.W.T.4 wX.Xy.6XXXE.E.Y.Z _ s f.J.%.& &.rXT.< E n ) W W i 3XK.K.N E =  Xc.-.& &.1X! < X.4 e.N q.+X{   ",
"  w.FXx.x.s.k O.e. X#.h h =.E.~.O.wX.Xy.6XXXe.e.y.Z +.E }.SX%.h d eXjX$ E n w.W W b 3XK.K.N E -  XNX, g < tX X: X.4 e.N q.OX{   ",
"  [ FXD.D.y.N X.2. Xn.c * -.^.7X8 9X.Xe.4XXXe.y.y.Z W B p.SX&.* =.eXE.< E N ) W R b qXK.K.k E - ! kX&.* &.tXK % O.5 e.N q.+X{   ",
"  w.DXlXy.y.k X.2.S.~.BXNXrX}.b.q 9X.Xy.:XXXe.e.y.v _ X.a.}.v.NXMX8X/.: O.M ^ W W G 4XK.K.n X.- k. XJ.NX:X Xd.- X.4 y.`.q.+X{   ",
"  { FXy.y.y.d $.O.u.R.5.&X XG.O.O.4Xy.y.f.GXq.e.y.t wXX.q d.9.zXqX|.t O.X.n / W I F y.y.y.h O.O.t r. XQ.d.d./ O.g.4 e.k.' +X .  ",
"  _ mXy.y.y.y.Y +.O.% - - < E O.wXe.t.4XY.GXq.Y q.e.2.7XO.E - - - - O.O.q { { W W G y.y.e.y.V.X.O.- - < - - X.O.< e.e.`.' +X{   ",
"  _ FX2.y.e.y.y.<.O.X.O.O.O.+.fXe.e.t.x x.GXe.BXe.e.e.t 7XO.O.X.O.O.@.t { ) _ lXW G y.e.e.y.q.p.O.O.o.X.O.X. .2 e.e.e.`.c.oX{   ",
"  {.JXy.y.y.y.y.y.j M M M M V y.e.e.W.J.Y.GXy.y.e.e.y.e.< V V l j M < { _ _ _ W W D e.e.f.e.t.q.V M M M M V - e.e.e.e.`.LXoXXX  ",
"  U `.3 y.y.y.y.y.y.e.e.e.e.e.y.y.e.e.Y.AXpXo y.y.y.e.q.e.e.e.q.q.t.} _ W W _ ` u J wXe.y.M.y.G.c.x.0.h.g.y.e.e.y.e.y.PXKXPX>.  ",
"  _.N.;.9 y.y.y.y.y.n.e.e.e.e.e.e.e.e.nX4XhXhX5 y.y.).n n h n n n n ~ s _ _ W '.q.y.5.vXe.G.H.:XG.G.G.K.H.:.D.D.D.9.h.= PX8X8X  ",
"  C.C._ f.<.a.e y.e.n.e.e.y.e.e.e.e.5X4XfX$ I.n.t { ! [ ' ' ' ' ' k k ~ R W T t.G.+ 7Xn.,.G.H.G.G.G.G.G.H.x D.D.e 0.y 8X8X8X8X  ",
"                                                                                                                                "
};
