/* XPM */
static char *_062aee8cfe64edfb55f69b57f3f36cdZ33HaV7nCzsJUR7Y[] = {
/* columns rows colors chars-per-pixel */
"64 64 2 1 ",
"  c black",
". c #70B895",
/* pixels */
"                                                                ",
"                                                                ",
"  .................    ....................   ................  ",
"  .................    ....................   ................  ",
"  .................    ....................   ................  ",
"  .................    ....................   ................  ",
"  .................    ....................   ................  ",
"  .................    ....................   ................  ",
"  .................    ....................   ................  ",
"  .................    ....................   ................  ",
"  .................    ....................   ................  ",
"  .................    ....................   ................  ",
"  .................    ....................   ................  ",
"  .................    ....................   ................  ",
"  .................    ....................   ................  ",
"  .................    ....................   ................  ",
"  .................    ....................   ................  ",
"  .................    ....................   ................  ",
"  .................    ....................   ................  ",
"                                                                ",
"                                                                ",
"                                                                ",
"  .................   .....................   ................  ",
"  .................   .....................   ................  ",
"  .................   .....................   ................  ",
"  .................   .....................   ................  ",
"  .................   .....................   ................  ",
"  .................   .....................   ................  ",
"  .................   .....................   ................  ",
"  .................   .....................   ................  ",
"  .................   .....................   ................  ",
"  .................   .....................   ................  ",
"  .................   .....................   ................  ",
"  .................   .....................   ................  ",
"  .................   .....................   ................  ",
"  .................   .....................   ................  ",
"  .................   .....................   ................  ",
"  .................   .....................   ................  ",
"  .................   .....................   ................  ",
"  .................   .....................   ................  ",
"                                                                ",
"                                                                ",
"                                                                ",
"                      ....................                      ",
"  .................   ....................   .................  ",
"  .................   ....................   .................  ",
"  .................   ....................   .................  ",
"  .................   ....................   .................  ",
"  .................   ....................   .................  ",
"  .................   ....................   .................  ",
"  .................   ....................   .................  ",
"  .................   ....................   .................  ",
"  .................   ....................   .................  ",
"  .................   ....................   .................  ",
"  .................   ....................   .................  ",
"  .................   ....................   .................  ",
"  .................   ....................   .................  ",
"  .................   ....................   .................  ",
"  .................   ....................   .................  ",
"  .................   ....................   .................  ",
"  .................   ....................   .................  ",
"  .................   ....................   .................  ",
"                                                                ",
"                                                                "
};
