/* XPM */
static char *_b5c6d3e31554e56e26ba0c5546c94afpSSqBAwyGyZDCjPz[] = {
/* columns rows colors chars-per-pixel */
"64 64 223 2 ",
"   c None",
".  c #190707",
"X  c #0D0515",
"o  c #0A0818",
"O  c #140515",
"+  c #1B0213",
"@  c #130815",
"#  c #1B0A15",
"$  c #15081A",
"%  c #290908",
"&  c #2C0213",
"*  c #240D15",
"=  c #230E19",
"-  c #280B17",
";  c #340214",
":  c #330615",
">  c #2D1116",
",  c #2C1219",
"<  c #29141A",
"1  c #3D1515",
"2  c #3E1A15",
"3  c #35161A",
"4  c #3C1919",
"5  c #371518",
"6  c #311708",
"7  c #3F2A0B",
"8  c #150F26",
"9  c #0D152B",
"0  c #0E142C",
"q  c #261833",
"w  c #1B273E",
"e  c #3D3936",
"r  c #322A2D",
"t  c #471905",
"y  c #571B00",
"u  c #4A0414",
"i  c #580112",
"p  c #431C14",
"a  c #4D1C14",
"s  c #441D19",
"d  c #551110",
"f  c #68000D",
"g  c #74080C",
"h  c #651D00",
"j  c #720615",
"k  c #5B2407",
"l  c #4C231A",
"z  c #5C2514",
"x  c #572619",
"c  c #672504",
"v  c #782A01",
"b  c #652D19",
"n  c #6D351E",
"m  c #7C3C1F",
"M  c #763719",
"N  c #7B3106",
"B  c #583A3A",
"V  c #532A29",
"C  c #6B3320",
"Z  c #7E3E20",
"A  c #205F21",
"S  c #154909",
"D  c #41403E",
"F  c #0E2845",
"G  c #152B47",
"H  c #18344E",
"J  c #173857",
"K  c #0F2D50",
"L  c #2D2544",
"P  c #352C47",
"I  c #2D3752",
"U  c #4E3D4F",
"Y  c #494158",
"T  c #554656",
"R  c #6F5A5C",
"E  c #575571",
"W  c #5D5461",
"Q  c #6A5F6D",
"!  c #756C78",
"~  c #87030B",
"^  c #940509",
"/  c #A80405",
"(  c #B90203",
")  c #A71406",
"_  c #BA190A",
"`  c #832D00",
"'  c #8B3804",
"]  c #973802",
"[  c #853C18",
"{  c #A13A02",
"}  c #B92F06",
"|  c #CA0902",
" . c #D60900",
".. c #DE0B00",
"X. c #D50600",
"o. c #E20E00",
"O. c #E70400",
"+. c #E91600",
"@. c #CB3906",
"#. c #D3260C",
"$. c #EB2402",
"%. c #F32B00",
"&. c #F12500",
"*. c #F12D17",
"=. c #84411F",
"-. c #954A1F",
";. c #97491D",
":. c #914709",
">. c #A54300",
",. c #AB4300",
"<. c #A84B07",
"1. c #B54C00",
"2. c #BE4B00",
"3. c #BA5301",
"4. c #B85504",
"5. c #AC541B",
"6. c #B35513",
"7. c #AC5505",
"8. c #8B4621",
"9. c #874521",
"0. c #964B21",
"q. c #9A4D21",
"w. c #A05020",
"e. c #C74A01",
"r. c #C65900",
"t. c #CB5B00",
"y. c #C65600",
"u. c #DA5201",
"i. c #CD6104",
"p. c #D26301",
"a. c #DA6B01",
"s. c #D76509",
"d. c #D5700F",
"f. c #E77A06",
"g. c #ED7C0C",
"h. c #EC523E",
"j. c #ED662A",
"k. c #A86052",
"l. c #845F69",
"z. c #907374",
"x. c #B25258",
"c. c #FD7757",
"v. c #FC7551",
"b. c #359B18",
"n. c #2F9217",
"m. c #3BA916",
"M. c #46B119",
"N. c #45B72F",
"B. c #60D52D",
"V. c #ED8607",
"C. c #F48B09",
"Z. c #F48907",
"A. c #F99305",
"S. c #FA950A",
"D. c #FC9B0A",
"F. c #F89507",
"G. c #F39211",
"H. c #FCA50D",
"J. c #FCAA14",
"K. c #FEB414",
"L. c #FEBB16",
"P. c #FDBB18",
"I. c #FBB205",
"U. c #FEC51A",
"Y. c #FEC717",
"T. c #FFD21E",
"R. c #FED924",
"E. c #FED728",
"W. c #FDD631",
"Q. c #FFE22C",
"!. c #FFE831",
"~. c #B18575",
"^. c #F78B4D",
"/. c #FF8464",
"(. c #FA996F",
"). c #D6AC7E",
"_. c #FCA278",
"`. c #FFED43",
"'. c #FBD865",
"]. c #FBE260",
"[. c #6B6884",
"{. c #74728A",
"}. c #8E7E87",
"|. c #97868C",
" X c #908892",
".X c #A28F94",
"XX c #B89C94",
"oX c #AC8C8E",
"OX c #B7A59C",
"+X c #8B8AA7",
"@X c #AE9FA0",
"#X c #B1A1A1",
"$X c #C39A86",
"%X c #C4A99E",
"&X c #CCAD93",
"*X c #FDBE88",
"=X c #F4B88F",
"-X c #C4AFA8",
";X c #C8B5AB",
":X c #D3BEB4",
">X c #CBB9B3",
",X c #FBBDAA",
"<X c #F9C893",
"1X c #D7C6B9",
"2X c #F9D2B5",
"3X c #EDCEAE",
"4X c #D1E8BE",
"5X c #B1B0C2",
"6X c #DACBC1",
"7X c #DED3C9",
"8X c #C5C7CC",
"9X c #EAD9C8",
"0X c #F0D6CE",
"qX c #D3EDC9",
"wX c #F6E8CA",
"eX c #F6E9D7",
"rX c #FEF4D7",
"tX c #FEF5E3",
"yX c #FEF8E6",
"uX c #FCF6EA",
"iX c #FFF9E9",
"pX c #FCF9F2",
"aX c #F8EDE4",
/* pixels */
"                                                                                                                                ",
"                                                                                                                                ",
"                                                                                                                                ",
"                                                                                                                                ",
"                                                                                                                                ",
"                                                                                                                                ",
"                                                                                                                                ",
"                                                                                                                                ",
"                                                                                                                                ",
"                                                                                                                                ",
"                                                                                          ! }. X[.                              ",
"                                                                  # # #             T Q iXiXiX7X!                               ",
"                                                                3 =.=.Z ,         W 1XtXyX6X>X|.                                ",
"                                                            # m 0.0.q.0.m ,     eXyXyXtX6XtXl.T                                 ",
"                                    y c c               @ 3 n 0.0.0.8.C l = $ |.eXiXz.' ] %X                                    ",
"                                  y A.K.U.3.'           - m 9.q.0.9.Z C l # P wX8X{ 2.L.Y.'                                     ",
"                                  y A.#.$.U.C.1.    # 4 m 0.0.q.q.0.n n n V ~.{ K.U.Y.} @.S.                                    ",
"                                  y F.c.v._ U.K.a.  3 x b M 0.q.q.b 5 # $ 5.] U.L.) h.^./.D.                                    ",
"                                  y A./.c._ T.T.:.  l n # * 4 4 b b a.t # r.u.R.I.^ *.^.v.S.                                    ",
"                                  t Z._./.tX1.C.  X $ 4 s l 0.0.s v L.l , Z.L.F.~.tXc.^./.H.                                    ",
"                                    t j.0X%Xe X $ , 3 - , s > 5 > 3 # # # 7 4.k.:XeX0Xv.,XD.                                    ",
"                                    . a.1 * l x 4 4 3 p 8.q.0.n         = a.1.oX:XyX9Xc._.S.                                    ",
"                                  4 -.q.q.x n ;.n x q.w.b     ] ,.{ ,.y.T.Z.C.$XtX:Xx.,XC.k                                     ",
"                                  > =   2 l p p 2 p # p ' >.r.p.P.y.f.T.L.J.C.D.g.V.C.f.7.                                      ",
"                                    q 8     ] >.r.'.1.V.,.U.p.D.R.W.rXE.R.T.T.T.C.f.A.f.c                                       ",
"                                      L . >.Z.f.' @.3XQ.S.Q.K.Q.K.iXS.u.g.R.R.D.f.S.t.y 6                                       ",
"                                        . 3.f.      uXQ.R.Q.J.Q.rX#     @ V.S.L.S.S.t.>.6                                       ",
"                                          v   OXo   X uXQ.Q.Q.!.=X  tX  A     S.t.t.C.v .                                       ",
"                                        % 3.. wXS X   # `.].rX!.wXX X o n.z.  t.t.t.2.] .                                       ",
"                                    Y U a.K.c tXM.  n.  iXyXiXyXeX    B.M.;X% R.R.R.R.p.~.R                                     ",
"                                      @XuXwXH.W.qXm.m.4X*X<XiXuXuXb.b.N.qXD.P.R.H.U.rX<X6X}.                                    ",
"                                    Y  X7XD.D.2X<XiXyXiX(.j.iXpXyXiXiX*X2XpXH.`.iXiXiX9X>XY                                     ",
"                                        @XrX;XyXiXiXiXiXV B B iXiXiXiXiX=XD.'.iX&X&X;X.XY                                       ",
"                                          P .X#X-X0XiXiXiXiXiXiXiXiXyX6X9X|.B e XXU U T                                         ",
"                                            8 q .XoXyXiXiXiXiXiXyXyX-Xl.V o.o.| & -                                             ",
"                                                f i +   ;X-XOXXXXXj +.$.+.^ ~ ( u &                                             ",
"                                              O X.g O.a.< r e &.%./  .%. .| O   / &                                             ",
"                                              1 (  .+.T.H.  ....(  ...f   > s s * / :                                           ",
"                                [.          # b : i / L.`     ^ / u   4 4 4 i.    f &                                           ",
"                                E uXpXE       ;.[ @ G ' i.  s X J G G [ 5.a   M     ~                                           ",
"                                  +X[.8XP   >.).3.  J 0 [ 6.V J J J H 3 $ 9XtXyXV.% +.i                                         ",
"                                  L {.I 5Xh c { 3X  X <., $ M l X o a ' z     tXJ.2.; o.;                                       ",
"                                      +X[.` h p.  2 O   K.L.C.- p.V.v p.L.. 6.. ~.; & $.| u                                     ",
"                                      q   ` rX3X    p 1 z a g.z , > H.t.K.v X       ; %.$. .                                    ",
"                                        1.  ;X2X  o 9 = N z <.  8 x d.v J.1.z % { e.) ..%...i                                   ",
"                                        $   4 > X K G   9 9 F J K z p c c b z C.L.t.J.o.&.&...                                  ",
"                                            + & -.s.4.  w H H H G     b x     ] S.,.e.u +.X.+                                   ",
"                                            ^ ~ 9.g.  a   O       > :.i.x 2   f.3.a.g ; o.;                                     ",
"                                                O M [             O . 4.r.a * & ; ( +                                           ",
"                                                .XeXeXaX4 4       z.wXeX1XXX@                                                   ",
"                                                X X X X                 O @                                                     ",
"                                                                                                                                ",
"                                                                                                                                ",
"                                                                                                                                ",
"                                                                                                                                ",
"                                                                                                                                ",
"                                                                                                                                ",
"                                                                                                                                ",
"                                                                                                                                ",
"                                                                                                                                ",
"                                                                                                                                ",
"                                                                                                                                ",
"                                                                                                                                ",
"                                                                                                                                "
};
