/* XPM */
static char *_f2f66e7c6f94a30ef238e1f31a2eff2BnL8n91ObtK7sQSG[] = {
/* columns rows colors chars-per-pixel */
"64 64 3 1 ",
"  c None",
". c #0C544E",
"X c #42A39B",
/* pixels */
"                                                                ",
"                                                                ",
"                                                                ",
"                                                                ",
"                                                                ",
"                                                                ",
"                                                                ",
"                                                                ",
"                                                                ",
"                                                                ",
"                                                                ",
"                                                                ",
"                                                                ",
"                                                                ",
"                                                                ",
"                                                                ",
"                                                                ",
"                                                                ",
"                                                                ",
"                                                                ",
"                    ..................                          ",
"                    ..................                          ",
"                    ..XXXXXX..XXXXXX..                          ",
"                    ..XXXXXX..XXXXXX..                          ",
"                    ..XXXXXX..XXXXXX..                          ",
"                    ..XXXXXX..XXXXXX..                          ",
"                    ..XXXXXX..XXXXXX..                          ",
"                    ..XXXXXX..XXXXXX..                          ",
"                    ..XXXXXX..XXXXXX..                          ",
"                    ..XXXXXX..XXXXXX..                          ",
"                    ..................                          ",
"                    ..................                          ",
"                    ..XXXXXX..XXXXXX..                          ",
"                    ..XXXXXX..XXXXXX..                          ",
"                    ..XXXXXX..XXXXXX..                          ",
"                    ..XXXXXX..XXXXXX..                          ",
"                    ..XXXXXX..XXXXXX..                          ",
"                    ..XXXXXX..XXXXXX..                          ",
"                    ..................                          ",
"                    ..................                          ",
"                                                                ",
"                                                                ",
"                                                                ",
"                                                                ",
"                                                                ",
"                                                                ",
"                                                                ",
"                                                                ",
"                                                                ",
"                                                                ",
"                                                                ",
"                                                                ",
"                                                                ",
"                                                                ",
"                                                                ",
"                                                                ",
"                                                                ",
"                                                                ",
"                                                                ",
"                                                                ",
"                                                                ",
"                                                                ",
"                                                                ",
"                                                                "
};