/* XPM */
static char *_8fdf621fc7741b0fac2b49771861d24UhAbbwWP5olla9LC[] = {
/* columns rows colors chars-per-pixel */
"64 64 251 2 ",
"   c #010101",
".  c #07070A",
"X  c #07080B",
"o  c #08090D",
"O  c #190707",
"+  c #15160F",
"@  c #0D0515",
"#  c #0C0C16",
"$  c #150816",
"%  c #1B0A15",
"&  c #0F1119",
"*  c #13131C",
"=  c #1A141D",
"-  c #17181C",
";  c #2C0D08",
":  c #270916",
">  c #330414",
",  c #2A1419",
"<  c #391617",
"1  c #3C1919",
"2  c #322B11",
"3  c #151621",
"4  c #1A1722",
"5  c #161923",
"6  c #1A1A25",
"7  c #10162C",
"8  c #181A2A",
"9  c #1B1D2A",
"0  c #261C25",
"q  c #221D29",
"w  c #2F1E33",
"e  c #17202D",
"r  c #1D212D",
"t  c #1E2332",
"y  c #192A39",
"u  c #13333E",
"i  c #262225",
"p  c #22222E",
"a  c #2B222D",
"s  c #362827",
"d  c #222533",
"f  c #2B2634",
"g  c #242936",
"h  c #2B2935",
"j  c #262B3A",
"k  c #2A2D3B",
"l  c #342B3A",
"z  c #24303E",
"x  c #2B303E",
"c  c #37343B",
"v  c #4E0C0D",
"b  c #571B00",
"n  c #461C16",
"m  c #6C0A0B",
"M  c #5B2407",
"N  c #4C231A",
"B  c #582517",
"V  c #672504",
"C  c #782A01",
"Z  c #7B3106",
"A  c #652D19",
"S  c #6D351E",
"D  c #78391B",
"F  c #461F2A",
"G  c #4F2D32",
"H  c #4C323A",
"J  c #54313B",
"K  c #5A3738",
"L  c #5B333C",
"P  c #64363B",
"I  c #1B5415",
"U  c #514532",
"Y  c #675A28",
"T  c #0E2949",
"R  c #172C45",
"E  c #1A3749",
"W  c #163A55",
"Q  c #2C2D41",
"!  c #342D46",
"~  c #253341",
"^  c #2C3443",
"/  c #2D3946",
"(  c #2C3649",
")  c #233B4B",
"_  c #2E3A4B",
"`  c #333444",
"'  c #383746",
"]  c #33364A",
"[  c #323B4C",
"{  c #3B3C4C",
"}  c #2D3C51",
"|  c #333D51",
" . c #3C3D52",
".. c #433D4C",
"X. c #493A49",
"o. c #563847",
"O. c #443E51",
"+. c #144654",
"@. c #184959",
"#. c #19515D",
"$. c #3A404F",
"%. c #254757",
"&. c #344254",
"*. c #3C4254",
"=. c #3C465A",
"-. c #35485B",
";. c #3C495D",
":. c #194D65",
">. c #165664",
",. c #374C62",
"<. c #285063",
"1. c #3A5165",
"2. c #0F6675",
"3. c #256374",
"4. c #4F414F",
"5. c #434252",
"6. c #4B4454",
"7. c #47485B",
"8. c #564757",
"9. c #534B5A",
"0. c #68505C",
"q. c #424D62",
"w. c #4B4E61",
"e. c #524F62",
"r. c #475368",
"t. c #4B546B",
"y. c #575668",
"u. c #4D5B74",
"i. c #575B74",
"p. c #675968",
"a. c #765B66",
"s. c #605F73",
"d. c #58627A",
"f. c #67677A",
"g. c #736878",
"h. c #8D030A",
"j. c #B00905",
"k. c #8B3804",
"l. c #84360E",
"z. c #973802",
"x. c #A63702",
"c. c #993436",
"v. c #A5373D",
"b. c #CA0902",
"n. c #DA0900",
"m. c #E30C00",
"M. c #E91600",
"N. c #CD3208",
"B. c #EC2506",
"V. c #F22800",
"C. c #8A4414",
"Z. c #964A1E",
"A. c #A74401",
"S. c #B94C00",
"D. c #B95402",
"F. c #AF5413",
"G. c #8A4521",
"H. c #964B21",
"J. c #9A4D21",
"K. c #A84D33",
"L. c #8C7531",
"P. c #BB673B",
"I. c #D04E01",
"U. c #C85900",
"Y. c #D66702",
"T. c #D1690A",
"R. c #E77A06",
"E. c #ED7C0C",
"W. c #CE4E38",
"Q. c #F54927",
"!. c #FC4D2D",
"~. c #FB512D",
"^. c #EF4F32",
"/. c #EA583B",
"(. c #F5652F",
"). c #945C57",
"_. c #907374",
"`. c #E25541",
"'. c #FB7453",
"]. c #349918",
"[. c #3BA916",
"{. c #46B424",
"}. c #60D52D",
"|. c #B38F34",
" X c #B0A02A",
".X c #EF8A0A",
"XX c #F48A08",
"oX c #FA9609",
"OX c #FCA70C",
"+X c #FCAA14",
"@X c #FEB815",
"#X c #D1B334",
"$X c #FAAA3F",
"%X c #FEC718",
"&X c #FFD21E",
"*X c #D1C428",
"=X c #FED826",
"-X c #FBD733",
";X c #FFE22C",
":X c #FBE532",
">X c #B18575",
",X c #F38B4C",
"<X c #FAAA41",
"1X c #FAB445",
"2X c #FD8B68",
"3X c #E9A77B",
"4X c #FCE455",
"5X c #187686",
"6X c #16778E",
"7X c #246281",
"8X c #706E86",
"9X c #8C7E8B",
"0X c #13838B",
"qX c #0A8D96",
"wX c #148896",
"eX c #08979C",
"rX c #228597",
"tX c #089DA5",
"yX c #0C9CA4",
"uX c #119DAB",
"iX c #08A5A9",
"pX c #0AA4AB",
"aX c #0BAAB5",
"sX c #0FABB4",
"dX c #14A9B5",
"fX c #0BB9C6",
"gX c #18B8C4",
"hX c #0ACBD4",
"jX c #03DDE5",
"kX c #05EBEA",
"lX c #91888F",
"zX c #AE9392",
"xX c #B3A29F",
"cX c #9092A5",
"vX c #C9AB97",
"bX c #F8BB8C",
"nX c #CAB6AD",
"mX c #F9C893",
"MX c #D5D1BB",
"NX c #F3D0B2",
"BX c #B1B0C2",
"VX c #D6CCC6",
"CX c #EDD8CB",
"ZX c #D3EDC9",
"AX c #F6E9D7",
"SX c #FAEFD2",
"DX c #FEF5E3",
"FX c #FEF8E6",
"GX c #FCF6EA",
"HX c #FBF6EE",
"JX c #FFF9E9",
/* pixels */
"                                                                                                                                ",
"X *X6 * j d t d d d d d d d d d d [ 6 9 6 * 5 6 * x g g g g g g g d d g d d [ 9 9 5 * 5 6 * p r r t t d d d t d t r t [ 6 9 Y   ",
"o 9 * ( 6 E qXeXeXeXqXqXeXeXeXeXu r ( 3 6 9 9 * | g L.d d g d d d g d d d |.d [ 6 9 9 9 * g 4 E qXqXtXeXqXeXqXqXqXqXE 9 ( 5 9   ",
"2 * ~ r 9 t @.E E j 9 r ~ :.E t <.9 9 ( 5 Y * ~ 9 d d d d g ( g g ^ g d d d g 9 | 6 L.* g 6 4 9 p y +.t ) j 9 E E #.tX9 8 ( 3   ",
". j 9 r pXW 9 9 9 j x ^ ~ r 9 9 :.E 9 t ^ 9 _ g g 9 ~ d g g _ ^ [ [ d g g d r g d ( 3 ^ d t e #.9 r 9 r ~ ^ 9 9 9 9 y yX9 9 ^   ",
"X t e +.>.6 6 3 3 9 9 9 9 3 & 9 9 2.+.y t 9 ^ s g g j d * 5 g g g g 5 9 d r g g #Xg 3 6 d y 2.9 9 3 3 9 9 g 3 * 9 8 9 y >.iXd   ",
"X d pXE 9 9 3 ^ ^ j j j j ^ / * r r E >.d 9 _ j g j d 3 &.| Q _ [ ` &.&.6 g j g g g 3 4 y +.r 9 3 / / x j x ^ ^ / 9 3 9 W eXd   ",
". d pX6 9 * ^ ~ 6 & * * & 3 r _ * t r >.j r [ k [ j 3 &.k p * i 6 & a [ *.3 k j j j 5 6 d d t * _ 6 * & r 5 & 6 ^ / 9 9 9 tXd   ",
". t yX9 t 3 ^ 6 ~ r d p r g 9 / 5 g g #.j r | k k d 9 ;.g | d ` ^ x =.d =.9 k k k g 6 6 g g d 3 _ * d 9 r r d x 6 / & ) 9 iXd   ",
"X d pXr ^ 9 ^ * 9 r r 9 r 6 * * p &.&.#.k d *.x *.;.k 3 5 k K 9 5 X.g 3 ;.c -.&.x x 6 6 j &.&.g * t d g d r r t * ^ d ~ 9 pXd   ",
". d yXx ~ r ^ * j 5 dX3.d r 6 d k [ x %.x d *.x ` *.` ` 0 ' 4 c.W.4 *.i 7.' q.*.` ` 9 9 ^ g.9XlX8X* p t E wXr j * / r t ~ tXd   ",
". d yXj ^ 9 ^ * j 6 6X%.g p - g k | k %.` g q.` q.*.{ ' - ..4 c.,X% % % t.' t.*.` ` 8.p.JXJXJXVXg.- d d y 6Xd g # _ r d ~ tXd   ",
". d iXd ~ 9 _ * r d 6 9 g r * * k -.-.%.` h q.{ r.t...3 4 h P p < G.G.D , ..t.t.` y.MXDXFXVXnXlX& g g x 5 6 g d * / d ^ 9 yXd   ",
". d iX9 t 3 ^ 6 k 9 d j d ( d &.9 ^ ` <.' k w.{ {  .a d.l 7.% D H.H.J.H.D , { { AXFXFXDXVXDX_.9.-.* j d d d r x 9 / * ) 9 yXd   ",
". d tX6 9 * ^ _ 6 & 5 - * 5 x ;.* 7Xb V V k t.$.5.5.q i.$ < S H.H.H.G.S N , $ lXAXJX_.k.z.vXk 4 ,.d * # j % & 6 / / 9 ) 6 uXd   ",
". d pX9 6 9 5 [ _ _ [ [ } -.,.6 ( b oX+X%XD.k.5.5.6.6.q : D G.J.H.G.D S N % ! CXVXx.S.@X%Xk.^ ^ 6 -.-.| [ _ [ _ _ 9 9 5 t yXd   ",
". d y rX>.9 9 5 6 d g h f 9 * j ( b oXN.B.%XXXS.9.6.% 1 D G.H.J.J.H.S S S A >Xx.+X%X%Xx.N.oXdX] ~ 9 q f h ^ 5 6 9 t 9 y wXpXd   ",
". ~ r 9 6X>.r 9 d _ &.&.-.k ^ ^ hXb oX'.'.j.%X@XR.9.< B A D H.J.J.A < % $ F.z.%X@Xj./.,X'.oX| -.[ f ^ ^ &.&.g 9 r r y eX9 9 ^   ",
"2 5 j 9 9 +.@.E t _ g k -.5Xk &.| b oX2X'.j.&X&XC.9.N S % : 1 1 A A Y.n % U.I.=XOXh.B.,X'.oXf } *.rX5X[ <.[ j +.%.:.pX9 9 _ p   ",
"o 6 * j r u tXuXuXuXuXdXdXaXfXhX1.b XX3X2XDXS.XXu.@ $ 1 n N H.H.n C @XN , XX@XoX>XFX'.,X2XOXd ,.fXsXsXpXuXpXsXuXyXtXy 9 _ 5 5   ",
"# 5 9 * g g j g j k k x ` ` [ {  .u.v (.CXvXc @ $ , < : , n , < , < % % % n D.).nXAXCX'.NXoX5. . .' ] ` ^ x j j g d d [ 9 9 5   ",
"& * 6 6 r p r d d d g k k x ` ` ` ' O Y.< : N B 1 1 < 1 G.J.H.S 4.4.8.4.: Y.S.zXnXFXCX'.3XoX` ' ' ` ` x k g g d p r r p *X9 6   ",
"X 5 6 * k g g j k k ^ ` ` ' { d.d.1 Z.J.J.B S Z.S N J.J.A g.p.z.A.A.A.U.&XXXXXvXDXnX).mXXXV y.d.5.5.{ { ' ` ^ x k k k &.6 9 5   ",
"o 9 * _ g Y g j x ` ` ] ' { 5.5.L., : q 1 N n n 1 n % n k.A.U.Y.@XU.R.&X@X+XXXoXE..XXXR.D.6.9.Y 6.5.5.{ ' ` ` x x j U g _ 5 9   ",
"+ * ( d g ^ g k ^ =.` ` t.O.5.9.6.y.q 4 w K z.A.U.4XS..XA.%XY.oX=X-XDX=X=X&X&X&XXXR.oXR.V 8.9.9.6.6.5.7.{ 7.` ` k k k g d | 5   ",
"o j g g d g k x ` ;.r.t.t.5.6.9.9.8.0.Q O A.XXR.k.N.NX;XoX;X+X;X@XJXoXI.E.=X=XoXR.oXU.b ; 0.0.8X9.6.6.7.u.t.' ` x k j d g g x   ",
"o d U x g g g 5 9 ' { { X.a a * = a 0 0 O D.R.a.a.a.GX;X=X;X+X;XSX% a.a.@ .XoX@XoXXXU.A.; s s 0 = f f X.5.w.q q k j r g g :Xd   ",
". g g g j g - q.r.q.i.i.y.f.g././././././.C J xX# 0 @ GX;X;X;X:XbXi DX0 I 0 0 oXU.U.XXC O /./././.8Xf.f.d.t.u.t.r.k j g r d d   ",
". g d g d 5 ;.*.f = 4 c 9.g.4 H J H H J ; D.O SXI @ J % 4X4XSX:XSX@ @ # ]._.J U.U.U.S.z.O H H H H 3 8Xd...6 5 h q.q.g ( g d d   ",
". g g g g 6 ;.f u.t.jX2.a = W.o.J L 5.O.Y.@XV DX[.L ].L JXFXFXFXAXL L }.{.vXO =X=X=X=XY._.0.L J J /.6 w aXjXu.i.f q.* g g d d   ",
". g g ~ [ l ;.* r.jXhX4 Q.~.!.!.~.~.!.xXGXSXOX-XZX[.[.ZXmXmXJXJXJX].].{.ZXoX@X=X+X%XDXmXVX9X!.~.~.!.~.^.0 kXjXt.3 q.` | j g d   ",
"X g g ^ &.k =.0 u.kX9 K.(.<X$X$X<X$X7.lXVXoXoXNXmXFXJXJX2X(.JXHXFXJXJXbXNXHXOX:XJXJXJXCXnX6.<X<X$X<X<X(.8.q hXd.- q.` ;.[ g g   ",
". g g ^ | k =.i u.kX6 v.(.<X<X<X<X<X1X$XxXAXnXJXJXJXJXJXG K K JXJXJXJXJXbXoX4XJXvXvXnXzX6.<X1X1X1X1X1X(.0.a hXd.i q.x | [ g d   ",
". d g ~ [ l =.= u.jXsXq Q.~.!.!.Q.!.!.!.!.! zXxXnXCXJXJXJXJXJXFXFXFXFXVXCXlXH c xXo.X.8.!.!.!.!.!.!.(.^.0 kXhXu.= q.` | k g d   ",
"o j g g g 6 7.p r.u.jXyXa * /.o.J L L L L L 4 w zXzXJXJXJXJXJXJXFXFXvX).G m.m.b.> : L L L L L J J /., c fXjXu.r.h q.3 k j g g   ",
"o j g ^ x * ;.` f 4 6 c y.g.6 L K K K P P P P P m m $ P nXnXxXzXzXm M.V.M.h.h.j.v : K P P K P P J 6 8Xf.6.& * l 7.q.g k g g d   ",
"X j d ^ j g * q.r.7.t.y.7.f.g././././././.`.J @ b.m m.Y., s c V.V.j.n.V.n.b.$ 0 j.: /./././././.`.g.f.i.i.i.t.t.q.k k [ g g d   ",
"X g G d g d k 9 q ' ' ..4.a a = = a 0 = a.9X= < j.n.M.%XOXa.n.n.j.n.n.m a., n n : j.> ).0 0 a q = l a 4.5.w.p q x k j k g -Xd   ",
". ~ d d r g ^ x ^ q.q.t.u.9.6.6.8X8.p.9Xi.' $ A > v j.@Xk.a.a.h.j.v a.1 1 1 T.a.a.m > i.9Xy.8.y.6.5...7.t.t.{ ` ^ x k g g g |   ",
"+ 5 j d g g j x x =.] { r.{ 5.6.i.GXHXy.l K.w Z.l.$ T k.T.a.n @ W T T l.F.n a.D i.X.h.f i.9.s.9.e.5...5.' q.` ` x k k g 9 [ 5   ",
"# 6 * x g L.g k x ` ` ` { { $...|.cX8XVX! O.A.3XD.p.W 7 l.F.G W W W E < $ CXDXFX.X: M.m = t.6.|.5.5...{ ] ' ` ^ x j L.g _ 5 6   ",
"# 6 6 * j j j j k x ^ ] ' { *.*. .Q 8X .BXV V x.NXs.@ F., $ D B # @ n l.B p.d.DX+XS.> m.> q 7.5.5.5.*.' ` ` Q k j k g | 9 9 5   ",
"* * 9 6 p p p p d g k k Q ` ` ` '  .W.cX8Xk.V U.H 1 @ 8.@X@XXX: T..XC Y.@XO F.O >X> > B.b.v  .{ ' ' ` k k k g g d d d t *X9 6   ",
"# 4 6 * d g d g g g k k ^ ^ ]  .*.u.q a l k.AXNX0 e.n < B B E.B , , OXU.@XC @ f O.9.> V.V.n.*.Q [ ` ` ^ ~ Q k j g g d _ 6 9 6   ",
"# 9 * _ t t pXpXaXsXaXaXaXfXfXhX-.{ u.q S.l nXNXt.# 7 : Z M A.y.* B R.C +XS.B ; x.I.j.n.V.n.v -.fXfXfXsXaXaXsXsXpXyX7 t ( 5 6   ",
"+ * ~ 9 r R :.t t } k &.,.6X[ [ ] -.] t.$ L 1 : @ T R 9.7 7 T W T B n V A A B XX@XU.OXm.V.V.n.| } ] wX[ 1.&.j t t :.aX9 9 _ 6   ",
"o k t t 2.@.r t d _ [ &.-.` x ^ fX,.] { q.` % > Z.T.D.9.y W ) E R d.9.A B 6.9.z.XXx.I.v M.n.$ rX] 6 ` ^ &.-.d d t 9 E wX9 9 j   ",
"o d y t 2.* 9 5 6 d h k k 9 * ] | uX[ ,. .k h.h.G.E.l n 4 $ 6.6.9.: C.U.B 1 6.R.D.Y.m > m.> 5X| ^ 9 q k k ^ * 6 d r 9 t ~ iXd   ",
"X d pXr 5 9 5 [ _ ( [ ^ / ,.1.5 Q [ ,.5X{ ` d.5.@ D l.a d.d.7.y.i.$ O D.U.n : : > j.% k } -.=.Q 9 1.;.| _ [ &.[ [ t r 9 t iXd   ",
"X g pX5 r * [ ^ 9 * 5 - * 6 j 1.4 ( j 5X*.l u.{ zXAXAXDX1 1 = a 4 _.AXAXMXxX$ 5... .d ] ( Q ] 4 1.g 3 * x 5 & 9 _ _ 9 9 5 pXd   ",
"X d tX9 y 3 _ 9 ( d j j d ^ d -.9 ` ` 3.[ k t.{ @ @ $ @ c t.` 7.w.{ t.! @ @ { { { { d [ [ ` ` q ,.3 j p j j d ^ 9 _ & ) 9 iXd   ",
". d pXt ^ 9 _ * r d r 9 j p * 3 h -.,.<.` k t.' r.u...4 9 ' L f a H ` 6 r.5.u.q.{ { d p ` 1.;.k 3 g j k p r d d * / d / r iXd   ",
". d eX~ ^ d ^ * ^ 9 gX3.r d 4 g h -.^ <.^ g r.` { *.{ { 0 5.= v.P.5 t., t.' t.5.' ' d q ^ ^ ^ k 6 - g g @.0Xj g * / r g ~ pXd   ",
"X d eX~ ^ p ( * ~ 6 uX:.p p - d k &.^ %.x g 1.` ' ;.' ` - { 6 c.P.4 7., t.' t.*.` ` 9 9 ^ ^ k k r 5 g d R wXr j * / r j ~ iXd   ",
". d iXd ^ 9 _ * r d 5 9 d 9 * * g _ } %.k d &.x =.,.l 3 5 k X.4 5 H ] 4 ;.' ;.=.^ ^ 9 9 k &.&.h * d p j 6 6 t t * ^ d ~ 9 pXd   ",
". d iX9 t 5 _ 6 j r g g 9 g 9 _ 6 g g #.k r [ k x d 9 ;.g | j ^ ( ~ *.d ;.9 x x k k 6 9 j d d 6 _ * t d d j d ~ 9 / & E t pXd   ",
". d iXr t & ^ / 6 * * & & 3 g _ * :.r >.j r [ j k k * *.p 9 * p 6 * d [ &.* g k g k 6 6 r p d * _ 9 * * r % & 6 ^ ^ 5 W 9 pXd   ",
"X d sXW 9 9 3 ^ _ ^ ~ ~ j ( ( 3 9 t @.>.g r &.g d j g 3 &.&.[ &.&._ &.*.* g d g g k 6 6 9 >.t r 3 _ _ ^ x j ^ ^ ^ 9 3 9 W iXd   ",
"X d y wX>.9 9 3 3 9 9 r 9 3 * 5 9 @.0Xe g r g F ( g d g * 6 j g j k 6 9 g p d d #Xk 5 9 t ~ 2.9 5 3 3 9 d j 3 3 9 t 9 t pXpXd   ",
"o ^ 9 r wX>.9 9 9 z ^ ^ ~ 9 r 9 @.>.r r [ 9 _ g g d d g g g _ ( ( [ g d d g g d d [ 5 [ d t y #.9 9 r d ^ _ 9 9 9 9 R eXlX9 _   ",
"U 3 j 9 9 t W E 9 g 9 %.z >.fXr z 5 r ( 6 #X5 ~ d d g g g g ^ g g _ g t r d d d _ 6  X5 g 9 r 6 t sX+.g g g 9 R r @.pXlXlXcX5   ",
"o 9 3 ~ 9 qX#.>.#.@.@.#.>.0X>.>.5X3 _ 5 9 9 9 * ^ d #Xg d k ^ ^ ^ d d d g #Xd | 6 9 9 9 * j 6 qX2.#.5X#.#.#.>.:.#.>.qX9 cX* 9   ",
"o U 9 3 d r r t d t t d t r d t t ( 6 9 6 9 6 9 3 g g g d d d g g d d d d t | 9 9 6 3 6 9 6 t d d d d d d d d d d t r _ 6 9 s   ",
"                                                                                                                                "
};
