/* XPM */
static char *_9983365045e49959ba867cdd5f772fbB0Htlin6dLbEI5mB[] = {
/* columns rows colors chars-per-pixel */
"64 64 2 1 ",
"  c None",
". c black",
/* pixels */
"                                                                ",
"                                                                ",
"                                                                ",
"                                     ..                         ",
"                       ..           ...                         ",
"                       ...          ...                         ",
"                        ...        ....                         ",
"                        ....      ... .                         ",
"                        . ...     ..  .                         ",
"                        .  .........  .                         ",
"                        . .............                         ",
"                        ...............                         ",
"                        ................                        ",
"                       ......      ......                       ",
"                       .....        .....                       ",
"                      .....          .....                      ",
"                      ....            ....                      ",
"                      ....            ....                      ",
"                      ....            ....                      ",
"                      ....            ....                      ",
"                      ....            ....             ..       ",
"                      .....          .....            ...       ",
"                       .....        .....             ..        ",
"                       ......      ......            ...        ",
"                        ................             ..         ",
"                         ..............             ...         ",
"                          ............              ..          ",
"                            ........               ...          ",
"                 ...           ..                  ..           ",
"                 ...           ..                 ...           ",
"                 ...           ..                ...            ",
"                 ...           ..                ..             ",
"                 ...           ..               ...             ",
"                 ...           ..               ..              ",
"                 ...           ..              ...              ",
"                 ...           ..             ....              ",
"                 ..................................             ",
"                 ..................................             ",
"                 ............................... ..             ",
"                               ..            ......             ",
"                               ..            ......             ",
"                               ..             ....              ",
"                               ..                               ",
"                               ..                               ",
"                               ..                               ",
"                             ....                               ",
"                            ......                              ",
"                            .......                             ",
"                           .........                            ",
"                          ...........                           ",
"                          ............                          ",
"                         ...... .......                         ",
"                        ......   .......                        ",
"                       .......    ......                        ",
"                       ......      ......                       ",
"                      ......        ......                      ",
"                     ......         .......                     ",
"                     ......          .......                    ",
"                    ......            .......                   ",
"                    .....              ......                   ",
"                    .....               .....                   ",
"                    ....                 ....                   ",
"                                                                ",
"                                                                "
};
