/* XPM */
static char *b72e9b2bb9ea4c23df27f80f66d637b1cA9Z1uUxnYXevdZ3[] = {
/* columns rows colors chars-per-pixel */
"64 64 2 1 ",
"  c black",
". c #4CDD84",
/* pixels */
"                                                                ",
"                                                                ",
"  ..............................   ...........................  ",
"  ..............................   ...........................  ",
"  ..............................   ...........................  ",
"  ..............................   ...........................  ",
"  ..............................   ...........................  ",
"  ..............................   ...........................  ",
"  ..............................   ...........................  ",
"  ..............................   ...........................  ",
"  ..............................   ...........................  ",
"  ..............................   ...........................  ",
"  ..............................   ...........................  ",
"  ..............................   ...........................  ",
"  ..............................   ...........................  ",
"  ..............................   ...........................  ",
"  ..............................   ...........................  ",
"  ..............................   ...........................  ",
"  ..............................   ...........................  ",
"  ..............................   ...........................  ",
"  ..............................   ...........................  ",
"  ..............................   ...........................  ",
"  ..............................   ...........................  ",
"  ..............................   ...........................  ",
"  ..............................   ...........................  ",
"  ..............................   ...........................  ",
"  ..............................   ...........................  ",
"  ..............................   ...........................  ",
"  ..............................   ...........................  ",
"  ..............................   ...........................  ",
"  ..............................   ...........................  ",
"  ..............................   ...........................  ",
"  ..............................   ...........................  ",
"                                                                ",
"                                                                ",
"                                                                ",
"  ..............................   ...........................  ",
"  ..............................   ...........................  ",
"  ..............................   ...........................  ",
"  ..............................   ...........................  ",
"  ..............................   ...........................  ",
"  ..............................   ...........................  ",
"  ..............................   ...........................  ",
"  ..............................   ...........................  ",
"  ..............................   ...........................  ",
"  ..............................   ...........................  ",
"  ..............................   ...........................  ",
"  ..............................   ...........................  ",
"  ..............................   ...........................  ",
"  ..............................   ...........................  ",
"  ..............................   ...........................  ",
"  ..............................   ...........................  ",
"  ..............................   ...........................  ",
"  ..............................   ...........................  ",
"  ..............................   ...........................  ",
"  ..............................   ...........................  ",
"  ..............................   ...........................  ",
"  ..............................   ...........................  ",
"  ..............................   ...........................  ",
"  ..............................   ...........................  ",
"  ..............................   ...........................  ",
"  ..............................   ...........................  ",
"                                                                ",
"                                                                "
};
