/* XPM */
static char *de1bc2deec94438183dc4d5cc7c8980ctgyaMF9TsAhpE7kq[] = {
/* columns rows colors chars-per-pixel */
"64 64 241 2 ",
"   c #000002",
".  c #03030B",
"X  c #060614",
"o  c #090616",
"O  c #0A0719",
"+  c #050A19",
"@  c #070A22",
"#  c #0B0C24",
"$  c #0D0D2B",
"%  c #130A22",
"&  c #0D1124",
"*  c #0D112D",
"=  c #10112F",
"-  c #060C36",
";  c #0D0E32",
":  c #0E0E3A",
">  c #110F35",
",  c #120F3B",
"<  c #0E1133",
"1  c #0B1932",
"2  c #0E123B",
"3  c #111135",
"4  c #13123C",
"5  c #131B3A",
"6  c #0D273C",
"7  c #0E0E44",
"8  c #130E43",
"9  c #0C1443",
"0  c #0C1A47",
"q  c #151445",
"w  c #181445",
"e  c #171945",
"r  c #15154B",
"t  c #19164C",
"y  c #15194B",
"u  c #1B194E",
"i  c #0E1753",
"p  c #161652",
"a  c #1B1653",
"s  c #161A53",
"d  c #1D1954",
"f  c #17165B",
"g  c #1C165A",
"h  c #151B5B",
"j  c #1C195B",
"k  c #20154F",
"l  c #201755",
"z  c #201955",
"x  c #22175B",
"c  c #20195A",
"v  c #211A5B",
"b  c #291A5D",
"n  c #12224F",
"m  c #162457",
"M  c #26205C",
"N  c #0E1C66",
"B  c #171763",
"V  c #1D1762",
"C  c #151B63",
"Z  c #1B1B63",
"A  c #151C6B",
"S  c #1B1D6B",
"D  c #1B1E73",
"F  c #1A1C75",
"G  c #221762",
"H  c #231B63",
"J  c #2B1B64",
"K  c #241C6C",
"L  c #2C1C6B",
"P  c #301B67",
"I  c #311C6C",
"U  c #241D73",
"Y  c #2C1D74",
"T  c #281C78",
"R  c #331D73",
"E  c #361E7B",
"W  c #381F7C",
"Q  c #0F216A",
"!  c #172366",
"~  c #1B226C",
"^  c #0D3C64",
"/  c #133766",
"(  c #123D68",
")  c #0F2A76",
"_  c #162274",
"`  c #1A2074",
"'  c #1B227B",
"]  c #15287A",
"[  c #1A3677",
"{  c #252167",
"}  c #2A216B",
"|  c #2D2472",
" . c #27237A",
".. c #32257B",
"X. c #36267A",
"o. c #34297D",
"O. c #40176B",
"+. c #0D456A",
"@. c #12446B",
"#. c #0D4C74",
"$. c #144877",
"%. c #0A5375",
"&. c #0D607D",
"*. c #1E1B88",
"=. c #251D81",
"-. c #2B1E82",
";. c #341F82",
":. c #341E85",
">. c #1C2483",
",. c #172883",
"<. c #1D258C",
"1. c #17298C",
"2. c #1A2A8C",
"3. c #163788",
"4. c #152E93",
"5. c #1A2B94",
"6. c #162D99",
"7. c #1B2C9A",
"8. c #0C3990",
"9. c #153295",
"0. c #16339C",
"q. c #19339C",
"w. c #173B9B",
"e. c #222383",
"r. c #2A2787",
"t. c #23238B",
"y. c #342284",
"u. c #3A2285",
"i. c #362A83",
"p. c #3A2A84",
"a. c #34228A",
"s. c #3B248B",
"d. c #352A8C",
"f. c #3C2A8B",
"g. c #213181",
"h. c #222B93",
"j. c #292896",
"k. c #242C9C",
"l. c #3C2393",
"z. c #3C2C92",
"x. c #3E259C",
"c. c #38299B",
"v. c #29329A",
"b. c #3B329B",
"n. c #1E2EA1",
"m. c #1736A2",
"M. c #1A35A3",
"N. c #163AA1",
"B. c #1A39A5",
"V. c #1735A9",
"C. c #1B35AB",
"Z. c #163AAA",
"A. c #1B3AAA",
"S. c #1C37B2",
"D. c #262BA2",
"F. c #3D25A0",
"G. c #352BA7",
"H. c #3D2CAC",
"J. c #2234A4",
"K. c #2936A5",
"L. c #2235AB",
"P. c #243AAA",
"I. c #3634A8",
"U. c #2939B6",
"Y. c #3638B5",
"T. c #402D8F",
"R. c #412A96",
"E. c #4227A5",
"W. c #422BA4",
"Q. c #422BAC",
"!. c #4334AB",
"~. c #422FB1",
"^. c #4237B5",
"/. c #154882",
"(. c #0A5A86",
"). c #055F96",
"_. c #135297",
"`. c #234C94",
"'. c #0D6792",
"]. c #0A7398",
"[. c #0A7C9B",
"{. c #1841A6",
"}. c #1844B4",
"|. c #0D55BE",
" X c #1456B8",
".X c #2544B8",
"XX c #3642B7",
"oX c #0D6AAD",
"OX c #0C69B5",
"+X c #106FB0",
"@X c #0B74B2",
"#X c #0A7AB1",
"$X c #2566A4",
"%X c #3F3DC1",
"&X c #4538C0",
"*X c #1659CC",
"=X c #1559D1",
"-X c #394AC8",
";X c #394FD0",
":X c #0E65CA",
">X c #0D6FD2",
",X c #1166D3",
"<X c #4445C9",
"1X c #4444CA",
"2X c #4A52D1",
"3X c #4C60DB",
"4X c #94038E",
"5X c #06809C",
"6X c #028DA6",
"7X c #0689A9",
"8X c #0392AC",
"9X c #0398AC",
"0X c #0596B6",
"qX c #039CB2",
"wX c #039CBC",
"eX c #02A2B4",
"rX c #03A4BC",
"tX c #03AABB",
"yX c #05ACB9",
"uX c #0B88C3",
"iX c #039DC3",
"pX c #0A99C3",
"aX c #0A9CDB",
"sX c #03A3C1",
"dX c #03ABC5",
"fX c #06A8CD",
"gX c #01B5C2",
"hX c #05A6D7",
"jX c #04ABD7",
"kX c #04ADDB",
"lX c #03B4DD",
"zX c #0BAEE1",
"xX c #08B6E6",
"cX c #03BCE4",
"vX c #03C3E5",
"bX c #0CC0E6",
"nX c #03C4EA",
"mX c #08C8F8",
"MX c #8A8AA2",
"NX c #9B93BF",
"BX c #9C94C1",
/* pixels */
"                      . .       . .                     .       .     . . .                   . .   . .   .                     ",
". q q ; z d z z d d d d c c c c d f.q q q > q q , u a d d d d d d d d d g c o.q q q > q q $ z c j j c j c c z w c c j p.w q q   ",
". q q } c t c c c c z a c c c j w c o.q q q q , c q ( 8X9XqXqXqXqXqXqXqXqX^ r o.4 q q q : c c t c c c c c q t t c c w c o.4 q   ",
". $ u a ..........a q c L c c j d c r ..4 a ; d q y r q r r b r r d r q r #Xq q i.w t ; e j c j c c j d d z a H z z z c d i.4   ",
"X M q q q q q q q a a d a q q q q q c c i.d | r q (.q q q r J J b c r q r q qXt t } 4 } c q q q q q q q u d q q q q q q q q }   ",
"X z q q q q q 3 4 q q q q 4 * q q q c t c a j y ^ q q q $ 4 r r r t 4 q r r r #.^ d , c c r q q q 3 2 q q d < 4 q q q q q q H   ",
"X c q q q q 4 d d t t t q d d * q q c x c d j s q q q ; L J k H b b J I 3 r r r 6Xx , c c r q q ; d d t a d d d d q q q t q c   ",
"X c q q q ; d d 4 $ $ $ $ 3 4 d ; q c c c a j s q q ; P q < $ ; * : q J I ; r q 6Xl , c c r q ; a 4 * # r $ # q d d q q r 4 c   ",
"X c r q q 4 d 4 t q q q q t 4 d 4 q j c c d c p r r 4 I r a p a a r H q I q r r 6Xz , c X.q q 4 d < q q q q q u 4 d $ q q q c   ",
"X c q q d q d $ r q * $ r q $ $ q z c d c d j p b J r $ ; r j q q t r ; J r J u 6Xc 4 c ..d d q $ q q q * 3 q q = u a d q q c   ",
"X c q d z q d $ t * './ $ q * q q d r y c a j s t d t a * r q [ `.r H 3 L t J b 8Xc 4 c ..r q q 2 * q 3 m (.q q * d r q u r c   ",
"X c q a z q d $ t ; (./ = q $ q q d r r c d j s a d t a $ a q /.(.r J # R a J b 8Xc 4 c d r q q 4 $ q < u %.q q $ d q q t q c   ",
"X c q q z q d $ q q < < j q $ $ q z c t j a j s J L r $ : p j p p a p : I a L c 6XH 4 c r z c q $ q q q < < q q $ d a d q r c   ",
"X c q q q 4 d 4 a q q r q t 4 d 4 r r o.i.a K n r p q R w K h H K g e.t E q p a 6XH 4 c r r r 4 d * 4 r q q q u 4 d $ q q c c   ",
"X c d q q < d d 4 $ = $ $ 3 t d 3 r i.H H d K [ j q , E a q : q # ; a E E 2 p j 8XH q c p r r < d 4 < $ r = $ 4 u u q q o.c c   ",
"o c c q q q < d d d z z d d d 3 r r f.H H j U m s h h 3 u.u.;.s.l.;.u.u.q h C C 7XK w H H r r r < d d d d d d d d q q q o.c c   ",
"o H d d q q q 4 4 q r r q 4 ; r r r f.j K j U m /.C C S < p S D U K r p Z Z Z 7X[ U t H H a t r r 4 4 q q d 4 4 q q q q X.u c   ",
"O i.c q q q q q q d z c c r r r p p } K W.V b.Z ! [ S D D ' s.a.a.y.' D S ~ sXS Z !.w b.K a p r r r r r d d r q q r q q ..c f.  ",
"X + j a c c c d t c j d J V H H H K h b.a r.; Y.Z S F ` ' >.a.e.>.e.' ` ` pXS S XXr a.; z.j H H H a r u r z q | | | | | q i.>   ",
". q 3 c c t c u j c c c c H H H j K I.t a U A h r.` 3.jXjXhXhXhXkXhXhXjXcX/.` XXC h s p 4 ..K t H H u u t t c c j c t c p.q q   ",
". q q ; c b c u d c c c c H H H K W.p a g t.D _ , h.>.<.>.<.<.<.<.t.t.t.t.h.2Xf C C T f a ; K H H } H c c j c c c c c f.q q q   ",
"O # q q u l a a a d d d d g d g j d ;.a Y F.: ' ] e.e.e.>.e.e.e.e.e.e.e. .t.e.G.>.-.F.; L L a c g d d d d a a a a a a d L q r   ",
". q q $ c c c c d d a d t t p h K I.t s j 4 ' ' : P..X.X.X-X2.P..XB..X.X.XM.2X1.7.1.: <.>.: | K S Z H j c c c c j j d o.q q q   ",
". q ; H r y qXrXrXeXrXrXrXrXrXrXm S I.q h D ,.h K.q.w.nXnXnXnXvXvXnXnXnXvX8.N.;X! 2.5.5.r ~ ~ ~ rXgXtXsXrXrXrXrXrXqX0 y i.4 q   ",
". $ z q q (.q q r c a h H '.p j Z Z S Y.t ] : -XM.] 4.q.M.M.K.B.C.J.M.M.M.mXN.q.;XA 7.7 ' ` S Z ).a u j h L r r r r dXr r p.4   ",
"X d r y wXq u r r L L L L ).m u Z _.` D j.>.P.7.q.OXq.q.M.M.Q.~.~.I.M.M.Z.B.hX0.B.-Xs h.>.' D Z ].d u j L L r r r r r wXr r M   ",
"X a n '.q q q 3 , t a a a r < h ~ S ,._ t.' U.9.w.q.q.M.9 B C.M.M.B.B 0.}.m.0. XOX7.C ' >.>.w.` C r r j j J 4 , r r q r ( tXj   ",
"X x 7Xq q q 4 I I I I E E u.u.q S S ` #Xj.' U. Xq.0.q.h <X<X<X<X<X<X<X<X! m.OXOXfXL.h ` 4.' ' ` q u.u.u.s.R I I R q q r q 9Xc   ",
". x [.q q 2 I J r ; * $ : 4 H R.q D ` #Xt.' U.}.J.q.i <Xk.` ; 9 0 : k.<X<XQ v.M.lXL.h ` 7.>.' q l.f : 4 g 6 ; r I I s q q sXj   ",
". x [.r r q I r K a K K h U V l.r D ' +Xt.>.U.OX+Xq.C <X<.}.=X>X>X*X|.k.<XC J.V.kXS.S ' 5.1.>.p a.9 S f H H s H q I 4 q 5 sXj   ",
". g [.r J r R : p a p p Z h 2 ; S l.l.@Xh.>.D.B.G.H.B.- 2 =X>X9.9.,X*X; %XA.Y.M.lXM.C >.7.c.x.F $ *.C 2.p r Z p ; R J J t rXd   ",
". j '.b J t J * L r q r s U 3 K U y.j.oXh.<.U.B.J.I.C.V.2 :X9.C i 4.>X8 <XB.~.G.jXA.! >.j.5.' ' r = A h t , U u * I t a d eXc   ",
"X x ].b J t J * L r q r s U * U D a. .oX5.<.U.{.P.I.L.V.2 :X9.N A 4.>X2 <XM.~.H.kXS.C J.D.h.` >.Z < D h p q e.a $ L a u d qXd   ",
". d 5Xu J r L ; a t r p  .Z 2 $ S l.l.+Xh.<.U.N.H.E.A.- ; =X>X0.0.>X:X; ^.A.E.K.lXC.Z n.7.x.F.D ; <.F 3.h p U a > R H J r qXj   ",
"X g [.r r q I q H h V V f e.V l.p ' ' @Xh.<.U.N.M.M.C <X<. X=X:X:X,X|.<.<XC B.B.kXC.Z n.7.5.5.p x.4 F h Z Z h K t R $ r r qXc   ",
"X x [.r r $ I a r ; * * , q K R.< ` ' @X5.<.U.w.M.M.9 <X>.s : s $ , j.Y.<X2 ] M.kXC.C n.7.5.1.< E.V ; 2 g * : r I R r r r eXc   ",
"X H 7Xr r r * R E H K Y L l.l.r ` ` ' @Xh.<.L.w.m.m.N.h <X<Xr.Y.Y.v.<X<X9 N.0.q.cXC.C 7.7.5.5.>.r x.x.:.Y L E E R r r r r qXH   ",
"X G n '.r r r 4 q a h V Z t 7 S S ` oX[ h.<.U.8.{.m.N.N.9 C A.B.B.A.B ] w.0.0.zXoXS.C k.w.7.<.>.Z r p V V R 2 q p r r r 8XeXH   ",
"X y r y @.r r r p L Y K E Z Z S ~ pX` >.2Xh.XXM.0.{.M.m.) 3.Q.I.I.K.M.M.m.0.vXq.M.;X~ ;X5.] ,.>.Z Z C Z K E h p p t r yXr q o.  ",
"X $ H r r / r r a L j Z R p Z Z uXD D ^.V k.9 P.0.0.Z.m.q.) Q.J.C.k.q.M.m.bX4.}.;X_ _.9 K.>.>.,.Z C C K } R h s p r yXr r f.q   ",
". q $ c r ^ 0XqX0X0XwXpXpXpXfXdX$.` %Xf Z 5.6.0 J.M._.cXxXlXzXxXxXxXxXcXcX+XZ.;X6.m.0.D 4 r.F 3.jXiXsXwXwXiXwXwXrXqX+.r p.q q   ",
". q q > a a j j j V Z V Z K K U U ^.p Z Z q 4.0.h P.V.B.N.A.M.0.0.V.V.m.m.M.3X4.0.0.9 D S q ' =.-.T U K K V V V V H j z.r q q   ",
"X # q 4 p.T.T.p.f.f.f.f.f.f.z.z.R.R.;.h a.l.r U K k.L.J.J.J.L.C.L.L.C.L.P.U.L.aXm.j.&Xq Z V W.W.R.R.T.f.f.f.f.s.s.p.f.s.L q t   ",
"X q q # H c c o.t H H H K K K K K !.a f C K h V q v.7.V.V.M.V.V.C.V.Z.Z.Z.M.2X2.q.1.U S Z :  .y.y.f f p V V V j c c H o.q q q   ",
". q ; } c d c } r r p a p K K U j Y b.a f h h : v.q.,.lXvXcXvXcXcXvXvXvXvX8.A.-X` 1.,.C 7 ! Z D dXsXrXsXwXsXsXdXrXtX9 y o.4 q   ",
". # d r } | | r r d r a H j K K K K Z I.r H 8  .' 1.7.4.7.7.G.G.q.v.M.A.{.aX9.q.<X_ 3., Z Z V C h h h h j L p r y %.dXq q o.4   ",
"o { c r q q q r r c d d c p a j h h j  .d.j r.` ' 3.1.4.5.7.E.j.c.c.7.7.q.2.uX4.5.v.w d.Z f Z h h h h d H L a 4XdX#.r 0Xr r z   ",
"O c a q q q q 3 4 q r r r 4 ; p j h h V U j U _ 1.>.A ' q p <.5.2.<.B 5.2.2.1.5._.-.r -.g.C h h f 4 q a p J 4 q r r q r m eXc   ",
"o c c r q q q d d d d d a j c 3 p j h K U c U ~ D D S q E.E.l.H.Q.F.Q.Q.h >.>.>.iX-.q a.h Z h f 2 R I L L L I I I t q q r eXc   ",
"O c c q q < d d 4 $ 3 & $ 4 t j 3 a j z.K j K ~ S S q x.U q 4 < < 7 T x.W.q ' ' iXU q y.j Z /.< R r $ # d 1 $ w I L q q q qXj   ",
"o ..r q q 4 d 4 d q r r r t q d 4 a s z.H j K ! Z S a R.F 2.D e.e.` J.K W.f ' ' wXU q y.O.g (.4 L < r t d a r H q J $ q q qXj   ",
"o z r q z q a $ r r $ ; r r * $ r H H d.H c H ! R E S : : C ,.~ A ) D : l.D u.U wXU 8 ..j I L j $ j t j q 4 d t $ I b J r qXj   ",
"o z r d z q d # q < $Xm ; r & q r d r a H c H ~ Z K C S * S C A S A y.3 l.S y.T 0XK 4 y V j a j q & r q ! +.b u # I r w z eXj   ",
"o c q d z q d 3 t ; $.5 ; q & q r j r r H c H ! Z K j f 3 S p p p h :.$ s.S y.R 9XK 4 9 c h a j r * r 4 m &.c c * J t t z qXd   ",
"o c q t z q d $ q q * $ q q $ $ r c c r c j V h L R p $ ; h ) s p A C ; ;.h E H 8XK 4 ..).].R r $ r t c 4 q H q 4 I b J q qXd   ",
"o c q q q 4 d 4 t q q q q t 4 d 4 r r p H j j h p p r E r Z C K S C ..f X.q j a 8XH 4 ..q a s 4 L < r r a t r H q I $ q q qXd   ",
"o c q q q $ d d 4 $ $ # $ 4 t d $ r r H H c H h r y ; R t : $ q < : p R W ; a p 8XH 4 ..4 y p $ L q ; $ t % $ q J J q q q qXc   ",
"o c q r q q 4 d d u u d t d d 4 r r t H H j K s r r r > R R H L L R R R q a p p 8XH 4 R y p r r : L J J b b J J J q q q q qXb   ",
"o c q q q q q , 4 q q r q 4 < q q q q a H c c 0 #.r r p ; 4 a a a a q r r r r yX+.G , X.n $.r q q 4 4 q t b ; 4 q q q q tXdXc   ",
"O X.r q q q q q q d d d z r q q q q y u T.H X.y y m r r r r J J L c r r r r eXr r f.4 f.r q r r q q q q b J q q q q q yXMXq f.  ",
"X @ ..c c c c c t d q r d q c c c c H f.4 L $ K r y m r r r b a a d r r r rXr r f.q L 4 H r y y q q q u r b q q q q tXMXMXBX4   ",
". q $ { c w c c 4 H H c H H c c w c i.q q q q < K r 8X@.( ( ( ( / / ^ ^ ^ qXr d.q q q q 4 } r 8X#.+.+.+.+.+.+.^ +.+.rXr NXq q   ",
"  q q 4 z j z z t u u t t t c c j f.q q q r q q q d d j d d d d a t t a t t f.q q q t q q 3 q a a a a a a a a a t t r f.q q q   ",
"                                                                                                                                "
};
